<svg width="500" height="500" viewBox="0 0 500 500" fill="none" xmlns="http://www.w3.org/2000/svg">
<path d="M420.115 403.757V464.022H480.38V403.757H420.115ZM424.7 459.467V408.311H475.841V459.467H424.7Z" fill="#EBEBEB"/>
<path d="M447.764 298.434H271.447V474.751H447.764V298.434Z" fill="#455A64"/>
<path d="M305.423 474.751H403.516C403.929 471.007 388.905 391.3 371.267 365.669C369.265 362.765 352.101 360.64 345.803 367.87C312.454 406.187 304.628 473.834 305.423 474.751Z" fill="#263238"/>
<path d="M373.59 372.287C376.372 379.501 386.872 404.781 392.588 422.938C396.409 435.165 397.877 445.329 398.702 448.019C398.702 448.019 369.662 438.727 363.212 438.711C353.171 438.711 337.061 459.651 341.005 462.279C347.225 466.421 376.831 480.467 400.49 484.885C413.344 487.284 437.554 470.945 435.644 457.954C432.969 439.72 400.016 391.667 387.484 378.034C380.988 370.957 370.182 363.498 373.59 372.287Z" fill="#EB9481"/>
<path d="M437.432 461.806C436.821 474.935 420.39 486 410.868 486.581C394.438 487.574 345.147 473.223 345.147 473.223L364.298 436.296C364.298 436.296 397.923 447.683 398.702 448.004C398.412 447.026 390.143 415.908 386.475 405.682C386.276 405.117 386.047 404.536 385.833 403.925C384.763 401.067 383.311 397.307 381.691 393.226C380.805 390.964 379.857 388.641 378.925 386.287C374.874 376.23 370.931 366.647 370.931 366.647C376.571 367.579 382.15 370.544 391.305 380.158C400.46 389.772 438.426 440.148 437.432 461.806Z" fill="#263238"/>
<path d="M357.955 465.229C359.33 462.616 360.721 460.017 362.081 457.404C363.442 454.79 364.802 452.299 366.178 449.762C367.661 447.162 369.013 444.489 370.228 441.753C368.547 444.073 367.015 446.498 365.643 449.013C364.175 451.56 362.739 454.138 361.333 456.747C359.926 459.355 358.576 461.902 357.282 464.389C355.861 467.03 354.625 469.767 353.583 472.581C353.583 472.703 353.69 472.81 353.767 472.703C355.299 470.29 356.697 467.795 357.955 465.229Z" fill="#37474F"/>
<path d="M408.958 453.461L398.717 448.019C398.427 447.041 390.158 415.923 386.49 405.698C386.291 405.132 386.062 404.552 385.848 403.94C384.778 401.082 383.326 397.322 381.706 393.241L408.958 453.461Z" fill="#37474F"/>
<path d="M417.425 457.969C414.555 455.855 411.553 453.925 408.438 452.192C406.909 451.321 405.381 450.511 403.7 449.792C402.018 449.074 400.154 448.463 398.442 447.683C398.304 447.683 398.213 447.836 398.35 447.882C399.879 448.615 401.407 449.624 403.012 450.465C404.617 451.305 406.222 452.192 407.842 453.033C411.036 454.668 414.169 456.41 417.348 458.092C417.425 458.137 417.562 458.015 417.425 457.969Z" fill="#37474F"/>
<path d="M409.921 450.006C407.338 450.006 391.824 445.895 389.562 448.035C375.807 461.011 371.435 458.397 368.501 460.094C345.804 473.146 315.48 488.492 304.659 488.583C288.26 488.721 281.733 474.95 284.454 461.943C289.849 436.22 324.529 386.073 340.225 372.745C348.555 365.684 347.867 376.337 344.444 387.892C342.426 394.678 338.896 404.704 335.273 414.654C332.079 423.473 323.627 446.002 323.474 446.537C323.474 446.537 323.474 446.537 323.642 446.537C324.376 446.399 343.787 437.259 363.304 432.231C370.182 430.458 384.503 427.936 389.639 430.229C392.695 431.589 392.695 433.423 392.695 433.423C394.553 433.41 396.35 434.085 397.739 435.318C398.793 436.218 399.567 437.401 399.971 438.727C401.494 438.943 402.916 439.614 404.052 440.652C405.03 441.705 405.66 443.034 405.855 444.458C409.6 445.543 409.921 450.006 409.921 450.006Z" fill="#EB9481"/>
<path d="M386.994 433.056C384.941 433.117 382.896 433.347 380.881 433.744C380.743 433.744 380.743 433.973 380.881 433.958C382.867 433.744 384.9 433.698 386.902 433.637C388.905 433.576 390.922 433.53 392.924 433.561C390.967 433.21 388.982 433.041 386.994 433.056Z" fill="#263238"/>
<path d="M400.032 438.711C396.535 437.594 392.834 437.265 389.195 437.748C389.172 437.757 389.152 437.773 389.138 437.793C389.123 437.814 389.116 437.838 389.116 437.863C389.116 437.888 389.123 437.912 389.138 437.933C389.152 437.953 389.172 437.969 389.195 437.978C392.827 437.782 396.469 438.054 400.032 438.788C400.032 438.788 400.078 438.727 400.032 438.711Z" fill="#263238"/>
<path d="M405.946 444.458C402.702 443.08 399.198 442.423 395.675 442.532C395.538 442.532 395.492 442.731 395.675 442.746C399.136 443.069 402.563 443.693 405.916 444.611C405.977 444.626 406.023 444.489 405.946 444.458Z" fill="#263238"/>
<path d="M362.433 432.567C360.721 432.844 359.026 433.222 357.359 433.698C355.57 434.141 353.797 434.615 352.07 435.227C348.594 436.384 345.185 437.737 341.861 439.277C341.844 439.27 341.827 439.268 341.809 439.27C341.792 439.272 341.775 439.278 341.761 439.288C341.746 439.297 341.735 439.311 341.726 439.326C341.718 439.342 341.714 439.359 341.714 439.376C341.714 439.394 341.718 439.411 341.726 439.426C341.735 439.442 341.746 439.455 341.761 439.465C341.775 439.475 341.792 439.481 341.809 439.483C341.827 439.484 341.844 439.482 341.861 439.476C345.254 438.283 348.693 437.168 352.131 436.098L357.175 434.447C358.902 433.882 360.706 433.454 362.402 432.812C362.54 432.735 362.54 432.552 362.433 432.567Z" fill="#263238"/>
<path d="M348.784 436.251C350.459 435.594 352.219 435.182 354.011 435.028L374.431 469.509C374.431 469.509 318.17 489.76 306.631 490.906C303.502 491.163 300.355 490.778 297.381 489.775C294.407 488.771 291.669 487.171 289.336 485.071C287.003 482.971 285.124 480.417 283.814 477.565C282.504 474.713 281.79 471.623 281.718 468.485C281.397 448.111 314.639 399.171 331.36 380.235C339.002 371.568 347.943 365.271 350.221 366.693C352.911 368.374 348.035 379.272 345.452 387.403C340.699 402.427 323.657 446.598 323.657 446.598C323.657 446.598 344.566 437.641 348.784 436.251Z" fill="#263238"/>
<path d="M353.889 434.997C350.71 435.181 337.076 439.949 330.29 442.838C323.585 445.683 317.163 449.153 311.108 453.201C307.7 455.509 304.445 458.015 301.25 460.613C301.238 460.621 301.228 460.632 301.22 460.644C301.212 460.656 301.206 460.669 301.203 460.683C301.2 460.698 301.2 460.712 301.203 460.726C301.206 460.741 301.212 460.754 301.22 460.766C301.228 460.778 301.238 460.789 301.25 460.797C301.262 460.805 301.276 460.81 301.29 460.813C301.304 460.816 301.319 460.816 301.333 460.813C301.347 460.81 301.36 460.805 301.373 460.797C313.331 452.528 326.14 445.564 339.583 440.026C343.419 438.497 350.022 436.296 353.766 435.318C354.775 435.043 353.98 434.982 353.889 434.997Z" fill="#37474F"/>
<path d="M340.392 404.842C339.537 406.217 338.665 407.593 337.932 409.045L337.84 409.259C338.925 405.942 339.965 402.626 340.897 399.278C340.897 399.08 340.622 398.973 340.545 399.171C335.715 411.399 331.222 423.794 326.866 436.22C325.659 439.705 324.589 443.205 323.488 446.72C323.488 446.842 323.641 446.904 323.687 446.72C325.017 443.663 326.362 440.729 327.569 437.657C328.777 434.585 329.923 431.543 331.054 428.486C333.092 423.096 335.007 417.67 336.801 412.209C337.366 411.261 337.947 410.298 338.497 409.335C339.277 407.914 339.934 406.431 340.591 404.949C340.713 404.796 340.484 404.689 340.392 404.842Z" fill="#37474F"/>
<path d="M360.798 461.989C359.269 459.452 357.832 456.899 356.335 454.347C354.837 451.795 353.446 449.349 352.009 446.842C350.587 444.217 349.031 441.666 347.348 439.2C347.348 439.2 347.241 439.2 347.256 439.2C348.341 441.827 349.597 444.38 351.016 446.842C352.407 449.441 353.843 452.024 355.295 454.591C356.747 457.159 358.184 459.605 359.667 462.081C361.167 464.687 362.842 467.19 364.68 469.57C364.756 469.662 364.924 469.57 364.878 469.463C363.658 466.898 362.295 464.403 360.798 461.989Z" fill="#37474F"/>
<path d="M375.302 469.585C373.606 466.238 370.977 462.967 369.021 459.788C369.021 459.666 368.776 459.788 368.837 459.91C370.61 462.891 372.23 466.1 373.927 469.081C366.208 472.275 358.001 475.118 350.114 477.915C342.228 480.712 333.898 483.494 325.66 485.878C321.075 487.208 316.489 488.644 311.797 489.867C311.507 489.867 311.583 490.173 311.873 490.112C320.227 488.454 328.47 486.285 336.557 483.616C344.795 481.002 352.942 478.083 361.012 475.057C365.505 473.345 375.44 469.845 375.302 469.585Z" fill="#37474F"/>
<path d="M361.913 432.582C352.311 435.181 342.856 438.298 333.592 441.921L333.179 442.074C328.349 443.969 325.369 445.375 324.651 445.497L324.498 445.406C324.03 445.059 323.515 444.781 322.969 444.58C321.609 444.091 308.541 442.456 308.877 438.467C309.214 434.478 314.517 434.722 315.297 434.768C314.456 434.585 307.364 432.919 309.672 429.388C311.308 426.866 318.323 427.233 319.041 427.264C318.323 427.034 311.797 424.91 314.043 421.288C315.648 418.705 323.489 419.041 324.391 419.194C323.657 418.918 317.849 417.94 320.57 414.822C322.45 412.652 337.214 414.822 343.786 418.139C353.568 422.938 361.913 432.582 361.913 432.582Z" fill="#EB9481"/>
<path d="M333.592 441.921L333.179 442.074C327.864 438.523 321.885 436.085 315.603 434.906C315.175 434.906 315.144 434.615 315.603 434.631C322.2 435.177 328.475 437.72 333.592 441.921Z" fill="#263238"/>
<path d="M319.393 427.462C328.686 429.296 332.889 431.36 340.898 436.434C341.005 436.51 341.127 436.342 341.02 436.266C333.561 430.687 328.93 427.921 319.47 427.218C319.042 427.187 318.965 427.371 319.393 427.462Z" fill="#263238"/>
<path d="M324.712 419.301C333.637 421.685 338.345 423.733 345.528 429.556C345.697 429.694 345.911 429.556 345.742 429.327C340.221 423.502 332.789 419.856 324.803 419.056C324.222 418.995 324.146 419.163 324.712 419.301Z" fill="#263238"/>
<path d="M369.403 383.521C364.114 385.416 353.844 378.186 349.396 371.874C349.106 371.431 349.258 366.494 349.167 360.488C349.167 356.835 348.922 352.846 348.494 349.086L372.307 352.142C371.514 356.914 371.303 361.764 371.68 366.586C371.747 367.104 371.86 367.616 372.016 368.114C372.016 368.114 372.016 368.267 372.016 368.359C372.872 371.095 374.508 381.687 369.403 383.521Z" fill="#EB9481"/>
<path d="M372.077 368.267C372.131 368.437 372.171 368.611 372.2 368.787C357.955 368.175 352.529 361.909 349.014 355.902C348.907 353.61 348.754 351.317 348.494 349.086L372.307 352.142C371.505 356.913 371.295 361.764 371.68 366.586C371.74 367.106 371.852 367.618 372.016 368.114C372.016 368.114 372.047 368.175 372.077 368.267Z" fill="#263238"/>
<path d="M338.743 324.111C337.443 332.655 345.254 355.642 351.841 360.06C361.409 366.464 375.317 365.149 380.315 354.053C385.16 343.354 374.461 313.52 367.263 309.729C356.656 304.043 340.653 311.472 338.743 324.111Z" fill="#EB9481"/>
<path d="M360.752 334.443C360.752 334.443 360.66 334.566 360.752 334.627C361.317 336.155 361.699 338.02 360.477 338.998C360.477 338.998 360.477 339.105 360.477 339.075C362.081 338.295 361.546 335.819 360.752 334.443Z" fill="#263238"/>
<path d="M358.825 333.297C356.273 333.939 357.74 338.998 360.124 338.402C362.509 337.806 361.011 332.747 358.825 333.297Z" fill="#263238"/>
<path d="M370.304 331.57C370.304 331.57 370.457 331.57 370.472 331.677C370.885 333.205 371.619 335.009 373.178 335.116C373.178 335.116 373.178 335.192 373.178 335.208C371.389 335.468 370.442 333.144 370.304 331.57Z" fill="#263238"/>
<path d="M371.237 329.522C373.713 328.605 375.379 333.603 373.086 334.459C370.793 335.315 369.173 330.302 371.237 329.522Z" fill="#263238"/>
<path d="M356.151 331.555C356.768 331.168 357.36 330.745 357.924 330.286C358.582 329.797 359.178 329.476 359.453 328.666C359.511 328.426 359.488 328.173 359.389 327.947C359.289 327.72 359.119 327.533 358.903 327.413C358.44 327.248 357.942 327.208 357.459 327.296C356.976 327.385 356.525 327.599 356.151 327.917C355.293 328.455 354.666 329.295 354.394 330.271C354.338 330.497 354.351 330.735 354.431 330.954C354.511 331.174 354.654 331.364 354.843 331.502C355.031 331.639 355.256 331.718 355.489 331.727C355.722 331.737 355.953 331.677 356.151 331.555Z" fill="#263238"/>
<path d="M372.459 326.404C371.736 326.442 371.012 326.442 370.289 326.404C369.527 326.529 368.745 326.406 368.058 326.052C367.869 325.894 367.737 325.679 367.682 325.439C367.626 325.199 367.651 324.947 367.752 324.723C368.015 324.307 368.385 323.97 368.823 323.746C369.262 323.523 369.752 323.422 370.243 323.454C371.252 323.358 372.26 323.641 373.071 324.249C373.269 324.392 373.418 324.593 373.498 324.824C373.579 325.055 373.586 325.305 373.519 325.54C373.452 325.776 373.315 325.985 373.125 326.139C372.936 326.294 372.703 326.386 372.459 326.404Z" fill="#263238"/>
<path d="M364.679 343.828C365.259 344.33 365.934 344.708 366.665 344.939C367.396 345.17 368.166 345.25 368.928 345.173C369.599 345.108 370.258 344.948 370.885 344.699L371.236 344.546L371.572 344.393C371.649 344.35 371.711 344.285 371.75 344.206C371.788 344.126 371.801 344.037 371.786 343.95C371.793 343.899 371.793 343.848 371.786 343.797V343.66C371.465 342.452 370.824 340.603 370.824 340.603C371.328 340.71 373.88 341.061 373.651 340.435C371.927 335.025 369.653 329.807 366.865 324.86C366.865 324.692 366.529 324.86 366.59 324.983C368.118 329.996 370.594 334.688 372.26 339.701C371.348 339.572 370.422 339.572 369.509 339.701C369.356 339.793 370.824 343.155 370.931 343.721C369.972 344.112 368.944 344.304 367.909 344.286C366.873 344.267 365.853 344.039 364.909 343.614C364.634 343.583 364.542 343.736 364.679 343.828Z" fill="#263238"/>
<path opacity="0.2" d="M341.25 340.313C342.595 339.197 344.306 333.542 345.101 331.142C345.896 328.743 343.481 318.915 342.686 315.95C340.619 318.242 339.256 321.081 338.758 324.127C338.177 327.749 339.293 334.061 341.25 340.313Z" fill="#263238"/>
<path d="M363.762 318.838C363.218 320.06 362.371 321.122 361.301 321.925C360.231 322.727 358.974 323.243 357.649 323.424C356.291 323.6 354.91 323.428 353.637 322.923C352.364 322.417 351.241 321.595 350.374 320.535C350.374 320.459 350.236 320.535 350.282 320.611C351.09 321.807 352.208 322.761 353.517 323.369C354.825 323.978 356.275 324.219 357.71 324.066C359.115 323.841 360.436 323.252 361.541 322.356C362.647 321.46 363.497 320.289 364.007 318.961C363.976 318.808 363.808 318.731 363.762 318.838Z" fill="#263238"/>
<path d="M350.557 302.423C348.562 302.999 346.745 304.068 345.273 305.532C343.801 306.996 342.722 308.808 342.135 310.799C341.723 312.756 341.993 314.794 342.9 316.576C342.9 316.576 343.083 316.576 343.052 316.576C342.484 314.933 342.367 313.166 342.714 311.462C343.061 309.758 343.859 308.177 345.024 306.886C346.283 305.421 347.864 304.268 349.643 303.518C351.423 302.767 353.352 302.44 355.28 302.561C357.15 302.647 358.93 303.389 360.308 304.655C360.446 304.792 360.736 304.655 360.614 304.456C358.642 301.995 354.5 301.185 350.557 302.423Z" fill="#263238"/>
<path d="M378.756 304.67C377.421 302.709 375.433 301.284 373.147 300.65C369.983 299.764 367.033 300.88 364.068 302.057C364.068 302.057 364.068 302.209 364.068 302.179C366.483 300.992 369.191 300.53 371.863 300.849C374.099 301.287 376.121 302.473 377.594 304.212C378.748 305.631 379.469 307.352 379.669 309.171C379.869 310.989 379.54 312.826 378.722 314.462C377.904 316.098 376.632 317.463 375.057 318.394C373.483 319.325 371.673 319.782 369.845 319.71C369.754 319.71 369.723 319.878 369.845 319.878C371.681 320.005 373.515 319.614 375.139 318.752C376.764 317.889 378.115 316.588 379.038 314.997C379.961 313.405 380.419 311.587 380.361 309.748C380.303 307.91 379.731 306.124 378.71 304.594L378.756 304.67Z" fill="#263238"/>
<path d="M338.682 329.002C338.682 329.002 332.293 322.323 334.494 316.775C335.747 313.642 342.396 312.19 342.396 312.19C342.894 310.656 343.69 309.235 344.74 308.01C345.789 306.785 347.07 305.78 348.51 305.052C353.63 302.24 361.058 303.524 361.058 303.524C361.058 303.524 365.429 299.076 371.099 300.467C379.001 302.439 381.08 313.046 375.165 318.304C371.023 322.002 363.289 319.587 363.289 319.587C362.678 319.863 357.344 325.548 350.863 321.116C350.863 321.116 347.913 325.701 343.664 324.295C343.423 325.499 342.815 326.598 341.922 327.441C341.03 328.285 339.898 328.83 338.682 329.002Z" fill="#263238"/>
<path d="M346.629 342.62C346.629 342.62 340.026 335.895 336.893 338.371C333.76 340.847 339.613 351.225 343.923 352.051C344.468 352.198 345.036 352.233 345.595 352.154C346.153 352.075 346.69 351.883 347.172 351.59C347.653 351.297 348.07 350.909 348.398 350.449C348.725 349.99 348.955 349.469 349.074 348.918L346.629 342.62Z" fill="#EB9481"/>
<path d="M338.635 341.352V341.459C341.692 342.147 343.618 344.516 345.131 347.083C344.913 346.831 344.643 346.629 344.34 346.49C344.036 346.351 343.707 346.279 343.373 346.279C343.04 346.279 342.71 346.351 342.407 346.49C342.104 346.629 341.834 346.831 341.616 347.083C341.616 347.083 341.616 347.252 341.707 347.221C342.182 346.979 342.72 346.889 343.247 346.963C343.775 347.036 344.267 347.271 344.657 347.634C345.305 348.248 345.879 348.935 346.369 349.682C346.552 349.911 346.98 349.682 346.843 349.422C346.262 345.616 342.67 341.016 338.635 341.352Z" fill="#263238"/>
<path d="M372 367.763L366.941 381.778L349.212 365.042L344.626 370.804C344.626 370.804 362.371 397.781 362.417 396.527L367.629 384.468L376.112 392.401L374.583 371.752L372 367.763Z" fill="#EBEBEB"/>
<path d="M375.944 382.145C375.593 378.752 375.333 375.313 374.813 371.935C374.813 371.813 374.614 371.767 374.584 371.935C374.034 375.252 375.455 388.259 375.562 391.377C375.211 391.04 367.721 384.422 367.645 384.529C366.499 386.455 362.662 395.228 362.418 396.038C359.605 391.743 348.876 376.169 345.605 372.165C345.586 372.147 345.561 372.137 345.535 372.135C345.509 372.133 345.483 372.139 345.461 372.153C345.439 372.166 345.422 372.187 345.412 372.211C345.402 372.235 345.4 372.262 345.407 372.287C347.913 376.872 362.112 397.796 362.311 397.719C364.348 393.575 366.165 389.325 367.752 384.988C369.036 386.44 376.632 393.929 376.647 393.425C376.606 389.655 376.371 385.89 375.944 382.145Z" fill="#263238"/>
<path d="M259.281 210.413H78.9595V396.589H259.281V210.413Z" fill="#FFC727"/>
<path d="M34.9873 266.002V361.741H130.727V266.002H34.9873ZM42.2167 354.511V273.231H123.497V354.511H42.2167Z" fill="#A6A6A6"/>
<path d="M197.9 262.777C202.638 261.661 214.926 264.87 219.129 271.152C223.332 277.434 223.134 287.72 221.04 288.759C218.946 289.799 209.867 289.157 203.601 285.825C197.334 282.493 195.561 263.403 197.9 262.777Z" fill="#263238"/>
<path d="M197.885 262.807C197.732 262.807 197.701 262.517 197.885 262.501C202.057 262.333 206.535 263.678 210.525 264.764C213.831 265.457 216.955 266.837 219.695 268.814C220.958 269.823 221.987 271.095 222.71 272.541C223.433 273.987 223.833 275.573 223.883 277.189C224.203 281.1 223.508 285.028 221.865 288.591C221.865 288.683 221.636 288.591 221.667 288.591C223.485 281.622 225.029 273.124 218.06 268.508C212.114 264.519 204.61 264.167 197.885 262.807Z" fill="#263238"/>
<path d="M220.398 286.956C224.571 287.43 235.514 295.194 237.44 303.081C239.366 310.967 233.13 322.767 231.113 323.638C229.095 324.509 219.772 317.066 216.684 311.548C214.621 307.849 216.134 303.493 216.99 299.153C218.152 292.764 219.68 286.895 220.398 286.956Z" fill="#263238"/>
<path d="M214.101 310.585C212.741 302.546 217.158 294.491 219.818 287.17C219.818 287.093 219.97 287.17 219.955 287.17C218.549 294.185 214.438 300.528 214.422 307.834C214.327 309.977 214.749 312.111 215.654 314.056C216.558 316.001 217.918 317.699 219.619 319.007C222.752 321.269 226.665 322.262 230.318 323.485C230.562 323.561 230.409 323.913 230.165 323.836C222.92 321.635 215.492 318.9 214.101 310.585Z" fill="#263238"/>
<path d="M221.239 287.69C221.2 287.667 221.171 287.632 221.157 287.59C221.143 287.548 221.144 287.503 221.161 287.462C221.178 287.421 221.209 287.387 221.248 287.367C221.288 287.347 221.333 287.342 221.376 287.353C227.337 290.074 234.52 294.048 237.776 299.993C241.307 306.443 237.975 313.29 235.01 319.205C235.01 319.205 234.857 319.205 234.887 319.205C237.807 313.214 240.879 305.786 236.89 299.519C233.451 294.063 226.863 290.349 221.239 287.69Z" fill="#263238"/>
<path d="M230.547 323.439C228.665 324.969 227.116 326.867 225.994 329.017C224.872 331.167 224.2 333.523 224.02 335.941C223.409 345.601 219.634 344.088 209.516 347.664C200.957 350.721 200.085 360.701 205.251 365.073C205.251 365.073 201.935 359.295 207.544 355.734C214.238 351.47 231.158 357.263 238.204 346.457C247.313 332.487 230.547 323.439 230.547 323.439Z" fill="#263238"/>
<path d="M232.274 324.432C232.274 324.432 232.151 324.432 232.274 324.524C236.095 327.581 240.099 330.638 241.612 335.559C243.232 340.832 241.001 346.503 237.103 350.186C232.732 354.297 227.474 353.075 222.079 352.586C218.208 351.975 214.245 352.413 210.601 353.854C210.494 353.854 210.601 354.099 210.693 354.053C216.607 352.035 222.324 353.273 228.361 353.64C230.609 353.824 232.864 353.371 234.867 352.333C236.87 351.295 238.54 349.714 239.686 347.771C245.662 338.754 240.466 329.69 232.274 324.432Z" fill="#263238"/>
<path d="M201.476 258.359C201.76 258.053 202.149 257.865 202.566 257.832C202.983 257.798 203.396 257.923 203.725 258.181C204.054 258.439 204.274 258.811 204.342 259.223C204.409 259.636 204.319 260.058 204.09 260.408C202.791 262.119 200.177 260.071 201.476 258.359Z" fill="#FFC727"/>
<path d="M200.239 261.187C200.523 260.881 200.912 260.692 201.329 260.659C201.745 260.626 202.159 260.751 202.488 261.008C202.817 261.266 203.037 261.638 203.105 262.051C203.172 262.463 203.082 262.886 202.853 263.235C201.553 264.932 199.001 262.899 200.239 261.187Z" fill="#FFC727"/>
<path d="M198.511 263.785C198.795 263.479 199.184 263.29 199.601 263.257C200.017 263.224 200.431 263.349 200.76 263.607C201.089 263.865 201.309 264.237 201.376 264.649C201.444 265.061 201.354 265.484 201.124 265.833C200.84 266.14 200.451 266.328 200.035 266.361C199.618 266.394 199.204 266.27 198.875 266.012C198.546 265.754 198.326 265.382 198.259 264.97C198.191 264.557 198.281 264.135 198.511 263.785Z" fill="#FFC727"/>
<path d="M196.509 266.063C196.794 265.756 197.183 265.568 197.599 265.535C198.016 265.502 198.43 265.626 198.758 265.884C199.087 266.142 199.307 266.514 199.375 266.926C199.442 267.339 199.353 267.761 199.123 268.111C197.824 269.822 195.21 267.774 196.509 266.063Z" fill="#FFC727"/>
<path d="M194.094 267.988C195.393 266.277 198.007 268.325 196.708 270.036C196.424 270.343 196.035 270.531 195.618 270.564C195.201 270.597 194.788 270.473 194.459 270.215C194.13 269.957 193.91 269.585 193.842 269.173C193.775 268.76 193.865 268.338 194.094 267.988Z" fill="#FFC727"/>
<path d="M191.465 269.517C191.749 269.21 192.138 269.022 192.555 268.989C192.971 268.956 193.385 269.081 193.714 269.338C194.043 269.596 194.263 269.968 194.331 270.381C194.398 270.793 194.308 271.216 194.079 271.565C192.779 273.185 190.181 271.137 191.465 269.517Z" fill="#FFC727"/>
<path d="M188.974 300.238C181.805 309.072 143.427 336.92 111.025 336.369C100.02 336.201 69.4522 289.233 63.7971 271.381C59.7469 258.558 86.9677 252.078 94.6709 253.927C104.269 256.25 122.977 296.524 126.676 296.722C137.68 297.487 156.571 290.869 179.757 288.515C191.694 287.369 194.506 293.452 188.974 300.238Z" fill="#AD6359"/>
<path d="M64.8836 274.331C62.8356 269.868 53.2219 245.062 52.4424 238.689C51.6629 232.315 50.7612 213.761 55.591 212.706C60.4207 211.651 61.1085 217.031 61.1085 217.031C61.1085 217.031 61.9644 209.129 66.9317 208.472C71.899 207.815 72.7091 216.267 72.7091 216.267C72.7091 216.267 74.2375 208.228 79.1742 207.922C84.111 207.616 83.5608 216.252 83.5608 216.252C83.5608 216.252 84.5542 208.839 88.7726 210.322C93.8622 212.11 90.4692 225.606 91.8294 232.545C92.1504 234.073 100.511 264.244 100.511 264.244L64.8836 274.331Z" fill="#AD6359"/>
<path d="M83.5904 215.472C81.1297 225.361 81.7563 230.13 84.9048 239.667C84.9048 239.85 84.7062 239.988 84.6297 239.789C80.6865 230.741 79.0358 224.887 83.1013 215.335C83.3153 214.861 83.7127 214.999 83.5904 215.472Z" fill="#263238"/>
<path d="M72.9075 215.442C71.2568 225.942 71.8987 231.108 74.4359 241.348C74.4359 241.486 74.2372 241.562 74.1913 241.425C70.8288 231.597 69.3157 225.713 72.3573 215.442C72.5101 214.968 72.9839 214.953 72.9075 215.442Z" fill="#263238"/>
<path d="M61.26 217.551C60.3888 227.852 60.8473 233.538 64.6072 243.152C64.6185 243.196 64.614 243.243 64.5945 243.285C64.5751 243.327 64.5418 243.36 64.5003 243.38C64.4589 243.4 64.4119 243.405 64.3672 243.394C64.3226 243.383 64.2832 243.357 64.2556 243.32C59.4717 233.89 58.8451 226.783 60.939 217.566C61.0919 216.879 61.3211 216.848 61.26 217.551Z" fill="#263238"/>
<path d="M107.297 268.86C107.297 268.86 108.718 256.159 108.107 250.442C107.495 244.726 97.4079 224.245 92.8226 226.171C86.9536 228.663 90.4536 241.639 93.006 247.768C93.006 247.768 79.4185 253.53 79.9229 263.388C80.4273 273.246 107.297 268.86 107.297 268.86Z" fill="#AD6359"/>
<path d="M91.4775 227.394C87.7635 233.508 91.6303 241.348 93.6631 247.477C93.6977 247.567 93.71 247.664 93.6989 247.759C93.6879 247.855 93.6539 247.947 93.5999 248.026C93.5458 248.106 93.4733 248.171 93.3885 248.217C93.3037 248.262 93.2091 248.286 93.1129 248.287C87.5801 251.084 80.58 256.632 79.663 263.113C79.6529 263.143 79.6334 263.17 79.6074 263.189C79.5813 263.208 79.5499 263.218 79.5178 263.218C79.4856 263.218 79.4542 263.208 79.4281 263.189C79.402 263.17 79.3826 263.143 79.3726 263.113C79.3726 256.021 85.8377 250.014 92.0889 247.34C89.9185 241.088 86.3879 233.064 91.4317 227.363C91.4469 227.318 91.5081 227.348 91.4775 227.394Z" fill="#263238"/>
<path d="M143.106 293.666L156.465 324.539C156.465 324.539 176.67 314.926 188.959 302.5C201.247 290.074 187.583 285.901 175.692 287.705C163.801 289.508 143.106 293.666 143.106 293.666Z" fill="#EBEBEB"/>
<path d="M188.958 302.561C176.731 314.987 156.464 324.601 156.464 324.601L152.399 315.201L193.1 291.602C194.598 294.078 193.773 297.685 188.958 302.561Z" fill="#C7C7C7"/>
<path d="M161.509 320.26C157.125 311.654 153.271 302.788 149.969 293.711C149.969 293.604 150.107 293.528 150.153 293.711C151.054 296.096 157.413 309.24 161.707 320.245C161.769 320.321 161.57 320.382 161.509 320.26Z" fill="#263238"/>
<path d="M158.345 354.741L152.858 396.589H240.451C240.451 396.589 228.866 318.105 210.158 293.971C200.804 281.912 188.271 282.233 179.406 291.449C177.465 293.452 157.902 321.406 154.447 332.946C151.437 343.171 158.345 354.741 158.345 354.741Z" fill="#EBEBEB"/>
<path d="M183.839 295.668L178.306 310.509C176.482 315.461 174.73 320.428 173.048 325.411C171.52 330.424 169.61 335.437 170.358 340.542C171.016 345.687 172.705 350.646 175.326 355.123L175.448 355.337V355.551C174.684 362.199 173.782 368.848 172.972 375.42C172.162 381.992 171.23 388.702 170.282 395.289C170.853 388.605 171.459 381.936 172.101 375.283C172.773 368.619 173.385 361.955 174.118 355.306L174.21 355.719C171.424 351.095 169.609 345.952 168.876 340.603C168.558 337.891 168.75 335.144 169.441 332.502C170.114 329.904 170.97 327.382 171.78 324.86C173.476 319.832 175.479 314.941 177.481 310.05C179.483 305.159 181.608 300.467 183.839 295.668Z" fill="#263238"/>
<path d="M171.611 315.002C171.546 315.332 171.61 315.674 171.789 315.958C171.968 316.242 172.249 316.447 172.574 316.531C172.735 316.554 172.9 316.545 173.057 316.503C173.214 316.462 173.362 316.389 173.49 316.289C173.619 316.189 173.726 316.064 173.805 315.922C173.884 315.779 173.933 315.623 173.95 315.461C174.019 315.131 173.957 314.787 173.778 314.502C173.598 314.217 173.314 314.012 172.987 313.932C172.826 313.907 172.661 313.914 172.502 313.955C172.344 313.995 172.196 314.068 172.067 314.168C171.938 314.269 171.831 314.395 171.753 314.538C171.674 314.681 171.626 314.839 171.611 315.002Z" fill="#263238"/>
<path d="M166.308 329.446C166.239 329.776 166.301 330.119 166.48 330.405C166.66 330.69 166.943 330.894 167.271 330.974C167.43 330.998 167.592 330.989 167.748 330.948C167.903 330.907 168.049 330.835 168.176 330.737C168.303 330.638 168.409 330.515 168.487 330.375C168.565 330.234 168.614 330.079 168.631 329.919C168.7 329.59 168.638 329.246 168.459 328.961C168.279 328.675 167.996 328.471 167.668 328.391C167.509 328.367 167.347 328.376 167.191 328.417C167.036 328.458 166.89 328.53 166.763 328.628C166.636 328.727 166.53 328.85 166.452 328.99C166.374 329.131 166.325 329.286 166.308 329.446Z" fill="#263238"/>
<path d="M165.635 344.179C165.566 344.509 165.628 344.853 165.807 345.138C165.987 345.424 166.27 345.628 166.598 345.708C166.758 345.731 166.921 345.723 167.077 345.682C167.234 345.642 167.381 345.57 167.509 345.472C167.637 345.373 167.744 345.25 167.824 345.11C167.904 344.969 167.955 344.814 167.974 344.653C168.039 344.324 167.975 343.982 167.796 343.697C167.617 343.413 167.336 343.208 167.011 343.125C166.851 343.101 166.688 343.11 166.531 343.151C166.375 343.191 166.228 343.263 166.1 343.361C165.971 343.459 165.864 343.583 165.784 343.723C165.705 343.864 165.654 344.019 165.635 344.179Z" fill="#263238"/>
<path d="M169.732 356.391C169.663 356.721 169.724 357.065 169.904 357.35C170.084 357.636 170.367 357.84 170.695 357.92C170.855 357.943 171.018 357.935 171.174 357.894C171.331 357.853 171.477 357.782 171.606 357.684C171.734 357.585 171.841 357.462 171.921 357.322C172.001 357.181 172.051 357.026 172.07 356.865C172.135 356.536 172.072 356.194 171.893 355.909C171.714 355.625 171.433 355.42 171.107 355.337C170.947 355.313 170.784 355.322 170.628 355.363C170.471 355.403 170.325 355.475 170.196 355.573C170.068 355.671 169.961 355.795 169.881 355.935C169.801 356.076 169.75 356.231 169.732 356.391Z" fill="#263238"/>
<path d="M168.142 369.704C168.077 370.033 168.14 370.375 168.319 370.66C168.499 370.944 168.78 371.149 169.105 371.232C169.265 371.256 169.429 371.246 169.585 371.205C169.742 371.163 169.888 371.09 170.015 370.99C170.143 370.89 170.248 370.765 170.326 370.622C170.403 370.48 170.45 370.324 170.465 370.162C170.531 369.833 170.467 369.491 170.288 369.207C170.109 368.922 169.828 368.717 169.503 368.634C169.342 368.61 169.179 368.62 169.022 368.661C168.866 368.703 168.72 368.776 168.592 368.876C168.465 368.976 168.359 369.101 168.282 369.244C168.205 369.386 168.157 369.543 168.142 369.704Z" fill="#263238"/>
<path d="M166.691 382.848C166.625 383.178 166.689 383.52 166.868 383.804C167.047 384.088 167.328 384.293 167.653 384.377C167.815 384.4 167.979 384.391 168.136 384.349C168.293 384.308 168.441 384.235 168.569 384.135C168.698 384.035 168.805 383.91 168.884 383.768C168.963 383.625 169.012 383.469 169.029 383.307C169.098 382.975 169.034 382.629 168.851 382.343C168.668 382.058 168.381 381.855 168.051 381.778C167.89 381.752 167.726 381.76 167.569 381.801C167.411 381.842 167.264 381.915 167.136 382.015C167.008 382.116 166.903 382.242 166.826 382.385C166.749 382.528 166.703 382.686 166.691 382.848Z" fill="#263238"/>
<path d="M184.236 442.425C188.653 445.482 196.081 432.216 198.603 429.388C201.125 426.561 202.226 426.652 202.073 428.807L207.82 406.003C204.839 408.311 198.527 413.279 195.164 416.549C190.656 420.921 179.819 439.43 184.236 442.425Z" fill="#AD6359"/>
<path d="M217.342 297.364C236.049 312.45 259.633 338.983 264.447 356.132C268.146 369.368 249.53 415.357 243.982 426.087C241.567 430.764 209.531 416.534 208.125 411.078C206.719 405.621 229.049 366.02 229.263 361.817C229.477 357.614 214.881 329.858 204.931 311.089C192.78 288.347 201.354 284.541 217.342 297.364Z" fill="#AD6359"/>
<path d="M187.385 455.524C190.335 458.733 196.311 454.836 196.311 454.836C196.311 454.836 190.992 461.408 195.149 464.006C199.307 466.605 204.977 460.95 204.977 460.95C204.977 460.95 200.392 467.247 204.748 469.478C209.104 471.71 214.667 466.834 214.667 466.834C214.667 466.834 214.361 469.249 218.137 469.463C223.547 469.769 231.266 460.996 234.215 455.463C237.165 449.93 243.86 427.478 244.838 424.023L209.455 404.796C209.455 404.796 208.829 405.255 207.82 406.049L202.058 428.807C201.966 430.229 197.916 438.986 196.449 441.508C193.147 447.179 184.068 451.917 187.385 455.524Z" fill="#AD6359"/>
<path d="M196.494 454.454C204.426 448.447 206.857 444.458 210.25 435.288C210.25 435.104 210.601 435.165 210.54 435.364C207.988 444.642 205.664 450.098 196.708 454.867C196.326 455.157 196.112 454.805 196.494 454.454Z" fill="#263238"/>
<path d="M204.579 461.087C212.221 454.118 214.941 449.808 219.267 440.469C219.267 440.331 219.557 440.469 219.496 440.561C216.042 450.083 213.596 455.463 204.991 461.408C204.609 461.683 204.227 461.393 204.579 461.087Z" fill="#263238"/>
<path d="M214.697 466.681C221.652 459.406 224.785 454.79 227.811 445.192C227.823 445.143 227.854 445.101 227.897 445.076C227.94 445.05 227.992 445.042 228.04 445.054C228.089 445.066 228.131 445.097 228.157 445.14C228.183 445.183 228.19 445.235 228.178 445.284C226.038 455.371 222.171 461.148 214.942 466.865C214.438 467.231 214.285 467.109 214.697 466.681Z" fill="#263238"/>
<path d="M213.75 338.647L240.757 318.426C240.757 318.426 226.726 301.002 211.794 291.923C196.861 282.845 195.944 297.15 200.529 308.308C205.114 319.465 213.75 338.647 213.75 338.647Z" fill="#EBEBEB"/>
<path d="M235.361 314.59C228 320.844 220.268 326.647 212.206 331.967C212.114 331.967 212.007 331.876 212.099 331.799C214.223 330.363 225.534 321.101 235.254 314.406C235.361 314.33 235.468 314.498 235.361 314.59Z" fill="#263238"/>
<path d="M208.996 327.214C207.361 323.531 205.114 318.166 203.249 314.574C203.249 314.574 203.142 314.574 203.158 314.574C203.891 316.668 204.686 318.762 205.588 320.825C205.527 320.715 205.461 320.608 205.389 320.504C204.717 319.542 204.014 318.594 203.265 317.677C203.83 318.716 204.442 319.74 205.099 320.734C205.511 321.36 205.955 321.956 206.398 322.553C206.872 323.638 207.926 326.328 208.431 327.413C209.226 329.232 213.108 339.472 213.276 339.35C214.223 338.728 215.132 338.049 215.996 337.317C216.134 337.21 215.996 336.965 215.798 337.072C215.309 337.485 214.086 338.295 213.887 338.448C213.016 336.599 212.359 334.642 211.488 332.747C210.616 330.852 209.837 329.125 208.996 327.214Z" fill="#263238"/>
<path d="M197.64 288.209C197.182 289.738 189.127 299.581 181.959 298.908C179.62 298.664 180.354 285.855 180.354 285.855L180.186 284.908L177.924 271.488L194.033 262.318L196.356 261.126C196.356 261.126 196.723 264.84 197.151 269.456C197.151 269.67 197.151 269.884 197.151 270.113C197.151 270.342 197.151 270.617 197.228 270.862C197.304 271.565 197.365 272.268 197.426 272.971C197.487 273.674 197.518 274.026 197.549 274.591C197.579 275.157 197.549 275.707 197.656 276.272C197.919 280.247 197.914 284.235 197.64 288.209Z" fill="#AD6359"/>
<path d="M197.151 269.41C195.605 273.049 193.287 276.31 190.358 278.968C187.429 281.625 183.959 283.615 180.186 284.801L177.924 271.381L194.033 262.211L196.356 261.019C196.356 261.019 196.723 264.794 197.151 269.41Z" fill="#263238"/>
<path d="M161.127 247.829C156.267 271.198 169.732 276.746 174.76 277.786C179.346 278.718 195.042 281.362 202.272 258.604C209.501 235.846 200.178 226.217 189.815 223.451C179.453 220.684 165.972 224.444 161.127 247.829Z" fill="#AD6359"/>
<path d="M169.013 242.311C169.562 242.342 170.114 242.342 170.663 242.311C171.245 242.364 171.829 242.23 172.329 241.929C172.466 241.8 172.556 241.63 172.586 241.445C172.617 241.26 172.585 241.071 172.497 240.905C172.273 240.603 171.972 240.366 171.625 240.218C171.279 240.07 170.899 240.017 170.526 240.064C169.756 240.047 169.009 240.319 168.432 240.829C168.325 240.953 168.255 241.104 168.227 241.265C168.2 241.426 168.217 241.592 168.277 241.744C168.337 241.897 168.437 242.03 168.566 242.13C168.696 242.23 168.85 242.292 169.013 242.311Z" fill="#263238"/>
<path d="M185.076 245.903C184.541 245.735 184.068 245.506 183.548 245.292C182.979 245.148 182.47 244.827 182.096 244.375C182.007 244.208 181.977 244.017 182.01 243.831C182.044 243.645 182.138 243.476 182.279 243.351C182.589 243.141 182.95 243.018 183.323 242.994C183.696 242.97 184.069 243.045 184.404 243.213C185.136 243.448 185.753 243.95 186.131 244.619C186.206 244.776 186.235 244.952 186.214 245.125C186.193 245.298 186.123 245.462 186.012 245.597C185.901 245.731 185.755 245.832 185.589 245.886C185.423 245.94 185.245 245.946 185.076 245.903Z" fill="#263238"/>
<path d="M180.951 250.962C180.951 250.962 181.058 251.054 181.042 251.115C180.676 252.643 180.538 254.584 181.883 255.394C181.883 255.394 181.883 255.501 181.883 255.486C180.141 254.89 180.355 252.399 180.951 250.962Z" fill="#263238"/>
<path d="M182.692 249.648C185.291 249.938 184.496 255.135 182.096 254.844C179.697 254.554 180.507 249.311 182.692 249.648Z" fill="#263238"/>
<path d="M183.716 249.999C184.114 250.351 184.48 250.947 185.031 251.084C185.581 251.222 186.208 250.763 186.697 250.305C186.697 250.305 186.788 250.305 186.773 250.381C186.636 251.375 186.101 252.338 185.015 252.322C183.93 252.307 183.487 251.329 183.365 250.289C183.304 250.091 183.502 249.846 183.716 249.999Z" fill="#263238"/>
<path d="M171.123 248.715C171.123 248.639 170.985 248.715 170.985 248.837C170.802 250.366 170.313 252.276 168.784 252.597V252.689C170.603 252.704 171.214 250.274 171.123 248.715Z" fill="#263238"/>
<path d="M169.961 246.82C167.408 246.254 166.446 251.405 168.815 251.94C171.184 252.475 172.07 247.294 169.961 246.82Z" fill="#263238"/>
<path d="M168.799 246.958C168.341 247.156 167.836 247.584 167.347 247.523C166.858 247.462 166.461 246.82 166.201 246.224C166.201 246.224 166.124 246.224 166.109 246.224C165.895 247.217 166.033 248.303 166.95 248.669C167.867 249.036 168.57 248.272 168.982 247.324C169.059 247.187 168.982 246.881 168.799 246.958Z" fill="#263238"/>
<path d="M171.49 256.296C171.49 256.296 170.756 258.635 170.573 259.766C170.573 259.873 170.817 259.964 171.199 260.056C172.14 260.395 173.156 260.467 174.135 260.264C175.114 260.062 176.018 259.593 176.748 258.91C176.839 258.818 176.748 258.68 176.61 258.726C175.008 259.475 173.206 259.684 171.475 259.322C171.475 259.001 172.85 255.364 172.667 255.318C171.777 255.251 170.883 255.302 170.007 255.471C171.383 250.549 173.523 245.888 174.822 240.966C174.836 240.928 174.834 240.885 174.817 240.848C174.8 240.811 174.769 240.782 174.73 240.768C174.692 240.753 174.649 240.755 174.612 240.772C174.575 240.789 174.546 240.821 174.531 240.859C172.076 245.782 170.12 250.938 168.693 256.25C168.601 256.877 171.062 256.403 171.49 256.296Z" fill="#263238"/>
<path d="M178.918 226.462C178.217 228.426 178.116 230.554 178.628 232.575C180.645 238.093 187.141 237.313 189.112 239.606C191.084 241.899 189.861 245.72 191.512 247.875C193.82 250.824 197.396 250.106 197.626 251.971C197.855 253.835 198.527 259.766 200.789 260.728C203.051 261.691 217.388 224.047 186.881 222.396C186.881 222.396 182.877 220.302 176.09 222.931C168.617 225.85 164.383 237.298 164.383 237.298C164.383 237.298 164.551 237.145 165.682 236.335C167.21 235.174 167.944 234.043 169.106 233.278C170.924 232.132 171.796 232.713 173.691 231.597C175.732 230.219 177.504 228.479 178.918 226.462Z" fill="#263238"/>
<path d="M179.544 224.826C178.913 226.294 178.467 227.834 178.214 229.411C177.861 230.93 177.935 232.517 178.428 233.997C179.093 235.375 180.241 236.463 181.653 237.053C183.044 237.726 184.71 238.032 186.131 238.796C186.901 239.193 187.55 239.79 188.011 240.523C188.398 241.279 188.627 242.106 188.683 242.953C188.707 244.495 189.151 246.001 189.967 247.309C190.428 247.923 191.017 248.429 191.692 248.793C192.368 249.158 193.114 249.371 193.88 249.418C195.475 249.308 197.076 249.543 198.572 250.106C197.043 249.669 195.439 249.559 193.865 249.785C193.03 249.767 192.208 249.57 191.457 249.206C190.705 248.842 190.041 248.32 189.509 247.676C188.571 246.325 188.041 244.734 187.98 243.091C187.914 242.34 187.707 241.609 187.369 240.936C186.96 240.325 186.396 239.834 185.734 239.514C184.404 238.796 182.799 238.444 181.332 237.726C180.58 237.365 179.885 236.896 179.268 236.335C178.631 235.776 178.143 235.067 177.847 234.272C177.397 232.683 177.397 231 177.847 229.411C178.224 227.82 178.794 226.28 179.544 224.826Z" fill="#263238"/>
<path d="M178.826 226.156C178.385 227.582 177.758 228.944 176.961 230.206C176.161 231.535 174.986 232.599 173.584 233.263C172.882 233.536 172.155 233.741 171.413 233.874C170.752 234.024 170.144 234.352 169.656 234.822C169.202 235.426 168.69 235.984 168.127 236.488C167.528 236.957 166.826 237.276 166.079 237.42C166.753 237.147 167.362 236.736 167.867 236.213C168.352 235.667 168.787 235.079 169.167 234.455C169.681 233.832 170.384 233.393 171.169 233.202C171.874 233.054 172.564 232.844 173.232 232.575C174.508 231.957 175.603 231.02 176.411 229.855C177.301 228.679 178.108 227.443 178.826 226.156Z" fill="#263238"/>
<path d="M196.02 257.412C196.02 257.412 202.302 250.824 205.358 253.163C208.415 255.501 202.928 265.604 198.786 266.475C198.261 266.622 197.712 266.661 197.172 266.59C196.631 266.519 196.111 266.34 195.641 266.063C195.172 265.786 194.763 265.417 194.439 264.978C194.116 264.54 193.884 264.04 193.758 263.51L196.02 257.412Z" fill="#AD6359"/>
<path d="M203.709 256.021C203.709 256.021 203.709 256.113 203.709 256.128C200.774 256.831 198.94 259.185 197.595 261.646C197.796 261.395 198.05 261.191 198.338 261.048C198.626 260.905 198.941 260.827 199.263 260.818C199.584 260.809 199.903 260.871 200.199 260.998C200.494 261.125 200.758 261.314 200.973 261.554C201.049 261.554 200.973 261.707 200.881 261.676C200.421 261.448 199.901 261.369 199.394 261.451C198.887 261.534 198.418 261.773 198.054 262.135C197.435 262.733 196.887 263.4 196.418 264.122C196.25 264.351 195.837 264.122 195.975 263.877C196.418 260.346 199.888 255.761 203.709 256.021Z" fill="#263238"/>
<path d="M180.17 286.864L183.548 297.746L197.732 285.519L201.094 290.104C201.094 290.104 186.574 310.249 186.559 309.286L182.952 299.856L176.181 305.664L177.969 289.845L180.17 286.864Z" fill="#EBEBEB"/>
<path d="M176.624 297.731C177.006 295.133 177.312 292.504 177.816 289.921C177.816 289.829 177.984 289.799 178 289.921C178.321 292.489 176.792 302.439 176.609 304.838C176.899 304.594 182.875 299.749 182.921 299.84C183.746 301.369 186.406 308.231 186.574 308.858C188.867 305.648 197.624 294.048 200.33 291.052C200.406 290.976 200.544 291.052 200.482 291.159C198.404 294.567 186.727 310.218 186.635 310.157C185.213 306.897 183.958 303.565 182.875 300.177C181.836 301.262 175.753 306.779 175.768 306.382C175.9 303.485 176.185 300.598 176.624 297.731Z" fill="#263238"/>
<path d="M469.207 88.202H271.447V285.962H469.207V88.202Z" fill="#DBDBDB"/>
<path d="M355.769 38.0856V171.317H489V38.0856H355.769ZM481.755 164.057H362.998V45.3149H481.755V164.057Z" fill="#263238"/>
<path d="M336.847 205.706L347.546 206.455C350.95 200.562 352.45 193.761 351.84 186.983C351.718 185.454 354.974 194.472 352.956 206.852C364.251 207.632 379.627 208.702 393.046 209.512C393.551 204.269 394.254 199.439 394.254 199.439C394.525 202.902 395.103 206.334 395.981 209.695C397.815 209.817 399.618 209.909 401.346 210.001C401.606 202.536 402.279 195.091 403.363 187.701C403.977 195.528 405.872 203.201 408.972 210.413C417.516 210.841 423.125 210.964 422.728 210.536C410.501 195.145 420.344 187.044 417.256 173.854C413.573 158.035 400.214 154.932 401.147 143.286C401.896 133.748 403.867 116.493 391.976 112.229C388.881 108.898 384.877 106.547 380.46 105.469C376.043 104.39 371.406 104.631 367.124 106.161C347.729 112.58 353.934 142.369 352.36 148.299C350.113 156.766 345.895 159.594 342.41 169.223C338.925 178.852 343.067 185.714 343.266 192.424C343.465 199.134 334.707 205.584 336.847 205.706Z" fill="#263238"/>
<path d="M423.294 208.381C421.65 205.721 420.384 202.846 419.534 199.837C418.904 196.858 419.056 193.767 419.977 190.865C420.811 187.785 421.479 184.663 421.98 181.511C422.481 178.221 422.315 174.863 421.49 171.638C420.595 168.408 418.968 165.427 416.737 162.926C414.575 160.548 412.218 158.355 409.691 156.369C407.246 154.467 405.062 152.253 403.195 149.782C401.408 147.213 400.352 144.207 400.139 141.085C399.868 144.323 400.582 147.567 402.187 150.393C403.877 153.148 405.975 155.631 408.407 157.76C410.724 159.833 412.904 162.054 414.934 164.408C416.851 166.708 418.253 169.392 419.045 172.28C419.752 175.205 419.918 178.236 419.534 181.221C419.213 184.278 418.51 187.334 418.006 190.391C417.708 191.996 417.534 193.621 417.486 195.252C417.476 196.92 417.766 198.577 418.342 200.142C419.494 203.159 421.17 205.948 423.294 208.381Z" fill="#263238"/>
<path d="M355.8 116.676C354.322 120.296 353.295 124.085 352.743 127.956C352.086 131.792 351.612 135.598 351.214 139.526L350.527 145.288C350.333 147.149 349.96 148.986 349.411 150.775C348.119 154.298 346.203 157.56 343.756 160.404C342.529 161.977 341.41 163.631 340.409 165.356C339.402 167.129 338.602 169.011 338.024 170.965C337.51 172.907 337.137 174.884 336.908 176.88C336.659 178.91 336.659 180.964 336.908 182.994C337.168 184.996 337.642 186.906 338.024 188.771C338.412 190.627 338.627 192.515 338.666 194.411C338.635 196.31 338.153 198.175 337.26 199.852C336.367 201.528 335.089 202.969 333.531 204.055C335.294 203.098 336.795 201.723 337.902 200.049C339.008 198.375 339.685 196.454 339.874 194.457C339.996 192.467 339.92 190.47 339.644 188.496C339.385 186.54 338.987 184.644 338.865 182.78C338.646 179.037 339.117 175.286 340.256 171.714C340.822 169.955 341.57 168.26 342.487 166.655C343.457 165.031 344.534 163.474 345.712 161.993C346.935 160.431 348.073 158.803 349.12 157.118C350.19 155.376 351.038 153.507 351.642 151.554C352.178 149.61 352.526 147.619 352.682 145.609C352.88 143.653 353.003 141.712 353.125 139.77C353.385 135.888 353.583 132.021 353.95 128.17C354.164 124.285 354.784 120.432 355.8 116.676Z" fill="#263238"/>
<path d="M449.109 280.537C449.109 280.307 449.109 280.078 448.987 279.849C449.048 280.132 449.094 280.417 449.124 280.705C449.127 280.648 449.122 280.592 449.109 280.537Z" fill="#FFC727"/>
<path d="M410.837 287.307C410.963 287.391 411.096 287.463 411.235 287.521V287.414L410.822 287.323L410.837 287.307Z" fill="#FFC727"/>
<path d="M356.151 180.319C332.125 207.341 303.039 263.082 309.565 273.735C316.825 285.596 351.474 247.11 350.282 245.368C349.273 243.84 360.538 210.551 368.73 186.173C376.922 161.795 362.097 173.64 356.151 180.319Z" fill="#D3766A"/>
<path d="M356.151 180.319C332.125 207.341 303.039 263.082 309.565 273.735C316.825 285.596 351.474 247.11 350.282 245.368C349.273 243.84 360.538 210.551 368.73 186.173C376.922 161.795 362.097 173.64 356.151 180.319Z" fill="#455A64"/>
<path d="M359.391 214.143C357.037 221.25 354.898 227.898 353.278 233.248C349.564 233.416 338.697 232.82 327.417 221.968C330.81 215.961 334.478 209.924 338.269 204.147C343.896 209.886 351.385 213.43 359.391 214.143Z" fill="#EBEBEB"/>
<path d="M332.98 286.054L339.002 245.169C339.002 245.169 329.342 228.357 334.952 216.13C337.779 210.016 357.205 179.998 367.66 172.402C377.472 165.28 390.922 171.775 395.492 177.965C408.636 195.787 415.04 227.852 422.377 286.008L332.98 286.054Z" fill="#455A64"/>
<path d="M350.572 191.293C348.585 194.014 346.659 196.78 344.764 199.577C345.284 198.492 345.804 197.407 346.293 196.321C346.293 196.245 346.293 196.169 346.186 196.321C345.483 197.682 344.825 199.057 344.199 200.448C341.662 204.188 339.206 207.988 336.832 211.85C335.801 213.465 334.926 215.175 334.218 216.955C333.577 218.7 333.151 220.517 332.95 222.365C332.728 224.217 332.697 226.086 332.858 227.944C332.982 229.852 333.253 231.748 333.668 233.615C334.138 235.74 334.803 237.817 335.655 239.82C336.083 240.798 336.526 241.761 337.015 242.724C337.504 243.687 338.345 245.353 338.345 245.414C338.161 246.392 337.978 247.08 337.856 247.905C337.734 248.73 337.596 249.586 337.474 250.427C337.214 252.108 335.044 268.432 334.799 270.113C334.31 273.445 333.882 276.777 333.469 280.124C333.24 282.05 333.103 283.975 332.843 285.886C332.843 285.962 332.95 285.993 332.965 285.886C333.24 284.22 333.653 282.585 333.943 280.919C334.233 279.253 334.555 277.587 334.875 275.921C335.502 272.558 337.932 254.523 338.452 251.145C338.605 250.213 338.742 249.281 338.895 248.333C339.101 247.326 339.218 246.303 339.247 245.276C337.602 241.9 336.212 238.406 335.089 234.822C334.554 233.001 334.161 231.141 333.913 229.259C333.737 227.424 333.737 225.576 333.913 223.741C334.063 221.899 334.417 220.079 334.967 218.315C335.582 216.521 336.37 214.79 337.321 213.149C339.277 209.68 341.356 206.271 343.435 202.894C345.819 199.062 348.244 195.246 350.71 191.446C350.71 191.446 350.618 191.232 350.572 191.293Z" fill="#263238"/>
<path d="M309.565 273.735C315.679 281.606 331.315 282.355 370.472 287.919C375.883 288.698 391.61 251.925 385.863 250.809C378.634 249.388 350.251 245.475 348.142 245.46C330.336 245.246 305.393 268.401 309.565 273.735Z" fill="#D3766A"/>
<path d="M378.023 249.434C378.023 249.434 394.576 251.069 403.013 254.615C411.708 258.518 419.324 264.477 425.205 271.978C431.563 280.032 441.345 303.921 434.956 307.941C429.179 311.579 420.406 286.65 420.406 286.65C420.406 286.65 433.535 310.585 425.771 313.688C418.006 316.79 409.463 287.277 409.463 287.277C409.463 287.277 422.408 312.175 413.895 314.1C407.46 315.629 398.229 289.279 398.229 289.279C398.229 289.279 409.203 310.753 402.646 312.526C395.401 314.498 385.36 290.777 385.36 290.777C367.936 292.504 358.918 286.192 353.049 280.949C351.551 279.681 378.023 249.434 378.023 249.434Z" fill="#D3766A"/>
<path d="M416.309 278.091C417.959 280.842 419.641 283.624 421.031 286.513C422.422 289.401 423.721 292.351 424.837 295.362C426.386 299.262 427.473 303.33 428.077 307.482C426.457 300.192 421.628 289.768 420.221 286.864C418.815 283.96 417.593 281.026 416.202 278.137L416.309 278.091Z" fill="#263238"/>
<path d="M405.778 282.936C407.72 286.543 409.798 290.059 411.586 293.742C413.375 297.426 414.643 301.078 416.172 304.869C416.294 305.159 416.172 305.129 415.958 304.869C414.292 301.14 412.458 297.823 410.746 294.17C409.034 290.517 407.46 286.696 405.61 283.058C405.656 282.906 405.748 282.875 405.778 282.936Z" fill="#263238"/>
<path d="M395.981 285.458C399.12 290.919 401.681 296.692 403.623 302.683C403.73 302.974 403.486 302.912 403.364 302.607C400.933 296.845 399.084 292.29 395.829 285.58C395.752 285.473 395.92 285.351 395.981 285.458Z" fill="#263238"/>
<path d="M390.524 249.724L358.29 287.659C358.29 287.659 314.272 284.602 309.198 272.986C304.123 261.37 337.641 244.481 348.096 245.475C358.55 246.468 390.524 249.724 390.524 249.724Z" fill="#455A64"/>
<path d="M331.131 250.427C333.668 248.685 340.851 244.589 348.096 245.399V245.521C342.151 245.704 333.775 249.051 331.192 250.519C331.131 250.565 331.07 250.458 331.131 250.427Z" fill="#263238"/>
<path d="M351.474 281.102C364.145 267.683 375.424 251.65 377.595 249.006C377.686 248.883 377.472 248.73 377.381 248.853C375.394 251.573 360.568 268.493 351.245 280.949C351.138 281.087 351.352 281.224 351.474 281.102Z" fill="#263238"/>
<path d="M318.081 198.324L303.792 268.303L357.538 279.277L371.826 209.298L318.081 198.324Z" fill="#FFC727"/>
<path d="M358.637 202.825L333.17 197.597L331.584 205.323L357.051 210.55L358.637 202.825Z" fill="#EBEBEB"/>
<path d="M352.835 201.671L349.701 201.014L350.42 197.468L342.808 195.893L342.075 199.455L338.941 198.813L340.271 192.332L354.21 195.19L352.835 201.671Z" fill="#EBEBEB"/>
<path d="M401.927 186.494C427.818 219.431 437.585 278.687 423.218 283.272C410.089 287.491 356.09 273.98 339.996 268.508C335.273 266.903 349.869 230.176 354.928 231.826C361.042 233.89 394.422 241.807 395.08 241.822C396.47 241.822 389.042 205.415 385.909 188.893C381.416 165.906 392.206 174.114 401.927 186.494Z" fill="#D3766A"/>
<path d="M311.751 218.04C310.983 218.977 310.521 220.128 310.428 221.336C310.335 222.544 310.616 223.752 311.231 224.796C309.259 225.39 307.556 226.655 306.417 228.372C304.552 231.429 308.633 235.785 308.633 235.785C306.712 236.827 305.151 238.425 304.155 240.37C302.627 243.534 306.172 248.455 306.172 248.455C304.936 250.38 304.437 252.687 304.766 254.951C305.897 260.973 314.594 264.397 320.05 266.628C325.507 268.86 343.282 270.006 346.629 270.571L361.241 235.311C361.241 235.311 339.369 218.3 332.507 216.588C326.806 215.151 314.823 214.494 311.751 218.04Z" fill="#D3766A"/>
<path d="M311.705 224.337C318.216 224.337 324.345 226.355 330.581 227.975C330.718 227.975 330.581 228.219 330.581 228.189C324.467 226.507 317.956 226.079 311.72 224.643C311.68 224.645 311.64 224.631 311.61 224.603C311.58 224.576 311.562 224.538 311.56 224.498C311.558 224.457 311.572 224.417 311.599 224.387C311.626 224.357 311.664 224.339 311.705 224.337Z" fill="#263238"/>
<path d="M308.939 235.372C310.415 235.522 311.864 235.866 313.249 236.396C314.778 236.87 316.306 237.359 317.712 237.925C320.769 238.964 323.627 240.08 326.546 241.272C326.669 241.272 326.546 241.532 326.546 241.486C323.581 240.467 320.601 239.494 317.605 238.567C316.077 238.108 314.548 237.665 313.096 237.237C311.643 236.923 310.229 236.452 308.878 235.831C308.848 235.827 308.819 235.817 308.793 235.802C308.766 235.786 308.743 235.766 308.725 235.742C308.706 235.718 308.693 235.69 308.685 235.661C308.677 235.632 308.675 235.601 308.679 235.571C308.683 235.541 308.693 235.512 308.708 235.485C308.724 235.459 308.744 235.436 308.768 235.418C308.792 235.399 308.82 235.386 308.849 235.378C308.878 235.37 308.909 235.368 308.939 235.372Z" fill="#263238"/>
<path d="M306.294 248.471C307.628 248.634 308.925 249.022 310.13 249.617C311.46 250.121 312.82 250.61 314.165 251.145C316.855 252.108 319.561 253.086 322.281 253.958C322.305 253.966 322.325 253.982 322.339 254.002C322.353 254.023 322.361 254.047 322.361 254.072C322.361 254.097 322.353 254.122 322.339 254.142C322.325 254.163 322.305 254.178 322.281 254.187C319.515 253.3 316.718 252.46 313.952 251.558L309.886 250.198C308.605 249.913 307.388 249.395 306.294 248.669C306.281 248.669 306.268 248.667 306.256 248.662C306.244 248.657 306.233 248.649 306.224 248.64C306.215 248.631 306.207 248.62 306.202 248.608C306.197 248.596 306.195 248.583 306.195 248.57C306.195 248.557 306.197 248.544 306.202 248.532C306.207 248.52 306.215 248.509 306.224 248.5C306.233 248.49 306.244 248.483 306.256 248.478C306.268 248.473 306.281 248.471 306.294 248.471Z" fill="#263238"/>
<path d="M394.636 240.34C395.049 240.08 387.3 204.926 384.702 186.57C382.103 168.214 390.296 169.987 402.08 185.668C414.719 202.481 437.233 247.966 429.423 281.652C426.901 292.565 348.753 277.281 348.753 277.281L359.284 232.361C359.284 232.361 393.948 240.722 394.636 240.34Z" fill="#455A64"/>
<path d="M426.442 237.008C413.695 240.737 399.863 238.842 394.223 237.787C393.413 233.37 391.442 223.802 389.424 213.47C402.813 214.999 411.892 213.042 416.859 211.376C420.723 219.655 423.927 228.225 426.442 237.008Z" fill="#EBEBEB"/>
<path d="M358.932 272.665C363.686 257.014 366.299 239.866 366.972 236.901C366.972 236.763 366.773 236.732 366.758 236.901C366.254 239.835 361.118 259.124 358.688 272.65C358.657 272.772 358.887 272.803 358.932 272.665Z" fill="#263238"/>
<path d="M409.279 245.536C407.75 245.276 367.874 234.042 359.162 232.682C359.025 232.682 359.162 232.208 359.285 232.239C376.403 235.23 393.288 239.428 409.814 244.802C411.801 245.597 412.091 246.025 409.279 245.536Z" fill="#263238"/>
<path d="M394.209 240.691C394.209 240.691 391.58 227.149 391.152 226.309C390.724 225.468 389.624 223.512 389.196 222.61C388.324 220.791 387.576 218.927 386.781 217.077C386.781 216.924 386.949 216.817 387.01 216.97C387.881 218.743 388.89 220.455 389.914 222.151C390.418 222.977 390.923 223.817 391.442 224.628C391.442 224.628 388.982 211.483 388.63 209.16C388.63 208.992 388.783 208.931 388.844 209.16C389.593 211.498 394.82 237.955 395.539 240.89C395.091 240.856 394.647 240.79 394.209 240.691Z" fill="#263238"/>
<path d="M364.802 280.063C362.188 279.344 351.749 277.663 349.212 277.296C349.684 275.421 349.991 273.509 350.129 271.58C350.118 271.561 350.103 271.545 350.084 271.534C350.065 271.523 350.044 271.517 350.022 271.517C350 271.517 349.979 271.523 349.96 271.534C349.941 271.545 349.925 271.561 349.915 271.58C349.116 273.71 348.478 275.897 348.004 278.122C348.004 278.336 362.066 280.109 364.817 280.246C364.847 280.216 364.878 280.093 364.802 280.063Z" fill="#263238"/>
<path d="M361.302 175.719C361.302 175.719 362.341 186.051 370.915 187.655C379.49 189.26 395.492 178.011 395.492 178.011C393.293 175.342 390.539 173.184 387.422 171.685C384.305 170.186 380.9 169.382 377.442 169.33C366.269 169.315 361.302 175.719 361.302 175.719Z" fill="#D3766A"/>
<path d="M385.894 172.83C385.435 174.358 377.35 184.171 370.182 183.422C367.843 183.162 368.653 170.354 368.653 170.354L368.5 169.406L366.284 155.987L382.424 146.816L384.747 145.624C384.747 145.624 385.114 149.338 385.512 153.969C385.512 154.183 385.512 154.397 385.512 154.627C385.512 154.856 385.512 155.131 385.588 155.375C385.588 156.063 385.726 156.766 385.771 157.469C385.817 158.172 385.863 158.539 385.894 159.089L385.985 160.771C386.23 164.788 386.199 168.817 385.894 172.83Z" fill="#D3766A"/>
<path d="M385.466 154.03C383.914 157.673 381.588 160.934 378.651 163.589C375.714 166.244 372.235 168.229 368.455 169.406L366.239 155.987L382.379 146.816L384.702 145.624C384.702 145.624 385.084 149.399 385.466 154.03Z" fill="#263238"/>
<path d="M350.741 130.936C344.459 153.954 357.557 160.327 362.525 161.672C367.11 162.895 382.531 166.487 391.167 144.233C399.802 121.98 391.075 111.77 380.896 108.423C370.717 105.076 357.022 107.903 350.741 130.936Z" fill="#D3766A"/>
<path d="M359.039 126.427C359.605 126.427 360.125 126.427 360.69 126.427C361.265 126.523 361.856 126.426 362.371 126.152C362.521 126.038 362.628 125.875 362.672 125.691C362.717 125.508 362.697 125.314 362.616 125.144C362.415 124.829 362.133 124.573 361.8 124.404C361.466 124.234 361.094 124.157 360.721 124.181C359.951 124.104 359.181 124.323 358.566 124.792C358.421 124.905 358.314 125.058 358.257 125.233C358.201 125.407 358.198 125.594 358.249 125.77C358.3 125.946 358.403 126.103 358.544 126.22C358.684 126.337 358.857 126.409 359.039 126.427Z" fill="#263238"/>
<path d="M375.455 128.72C374.931 128.523 374.421 128.293 373.926 128.032C373.362 127.872 372.867 127.528 372.52 127.054C372.441 126.884 372.42 126.693 372.461 126.51C372.503 126.327 372.604 126.164 372.749 126.045C373.072 125.85 373.442 125.746 373.819 125.746C374.197 125.746 374.567 125.85 374.889 126.045C375.614 126.326 376.204 126.873 376.54 127.574C376.589 127.727 376.596 127.891 376.56 128.048C376.524 128.205 376.446 128.35 376.335 128.467C376.225 128.584 376.085 128.669 375.93 128.714C375.775 128.758 375.611 128.76 375.455 128.72Z" fill="#263238"/>
<path d="M370.182 136.087C370.182 136.087 370.274 136.194 370.182 136.255C369.739 137.784 369.509 139.694 370.808 140.565C370.808 140.565 370.808 140.672 370.808 140.642C369.173 139.969 369.525 137.493 370.182 136.087Z" fill="#263238"/>
<path d="M372 134.788C374.599 135.216 373.529 140.367 371.144 139.954C368.76 139.541 369.845 134.421 372 134.788Z" fill="#263238"/>
<path d="M372.964 135.262C373.346 135.644 373.682 136.255 374.217 136.423C374.752 136.591 375.41 136.163 375.929 135.735C375.929 135.735 376.021 135.735 375.929 135.812C375.731 136.805 375.15 137.738 374.065 137.661C372.979 137.585 372.536 136.576 372.536 135.537C372.597 135.353 372.811 135.109 372.964 135.262Z" fill="#263238"/>
<path d="M360.706 132.938C360.706 132.938 360.569 132.938 360.553 133.061C360.263 134.666 359.667 136.439 358.108 136.652V136.744C359.911 136.882 360.691 134.513 360.706 132.938Z" fill="#263238"/>
<path d="M359.651 130.982C357.129 130.233 355.83 135.323 358.122 136.011C360.415 136.698 361.76 131.609 359.651 130.982Z" fill="#263238"/>
<path d="M358.505 131.043C358.031 131.211 357.512 131.593 356.977 131.502C356.442 131.41 356.136 130.738 355.922 130.126C355.922 130.126 355.846 130.126 355.83 130.126C355.555 131.089 355.617 132.19 356.503 132.617C357.389 133.045 358.138 132.327 358.627 131.425C358.765 131.288 358.689 130.982 358.505 131.043Z" fill="#263238"/>
<path d="M366.116 148.131C365.672 148.436 365.214 148.895 364.587 148.849C363.996 148.742 363.434 148.513 362.936 148.177C362.936 148.177 362.829 148.177 362.845 148.177C363.024 148.529 363.295 148.826 363.628 149.038C363.961 149.251 364.345 149.37 364.74 149.384C365.087 149.355 365.418 149.223 365.69 149.005C365.962 148.787 366.164 148.494 366.268 148.161C366.299 148.131 366.192 148.085 366.116 148.131Z" fill="#263238"/>
<path d="M360.736 140.932C360.736 140.932 359.896 143.24 359.651 144.356C359.651 144.463 359.88 144.57 360.263 144.677C361.183 145.066 362.193 145.192 363.181 145.041C364.168 144.89 365.095 144.467 365.856 143.821C365.963 143.729 365.857 143.591 365.719 143.637C364.082 144.299 362.275 144.411 360.568 143.958C360.568 143.637 362.097 140.076 361.974 140.015C361.087 139.893 360.187 139.893 359.3 140.015C360.935 135.17 363.319 130.631 364.863 125.786C364.863 125.602 364.664 125.495 364.588 125.648C361.879 130.437 359.657 135.486 357.955 140.718C357.756 141.36 360.247 141.024 360.736 140.932Z" fill="#263238"/>
<path d="M360.706 144.325C361.131 145.345 361.81 146.239 362.677 146.923C363.165 147.282 363.753 147.479 364.358 147.489C365.673 147.489 366.009 146.358 366.04 145.334C366.053 144.79 366.001 144.246 365.887 143.714C364.267 144.459 362.454 144.673 360.706 144.325Z" fill="#263238"/>
<path d="M362.677 146.923C363.165 147.282 363.752 147.479 364.358 147.489C365.672 147.489 366.009 146.358 366.039 145.334C365.382 145.192 364.696 145.271 364.088 145.558C363.48 145.846 362.984 146.325 362.677 146.923Z" fill="#FF9CBD"/>
<path d="M389.883 143.851C387.422 142.98 382.883 134.238 386.154 122.117C386.154 122.117 383.968 133.214 384.335 135.032C384.702 136.851 381.798 130.111 384.335 120.299C380.64 121.62 376.774 122.402 372.856 122.622C367.904 122.622 365.092 121.735 364.863 121.307C364.634 120.879 372.001 120.696 374.431 119.106C374.431 119.106 360.583 121.292 354.821 120.1C354.164 119.962 357.221 106.344 367.568 103.15C377.915 99.9554 389.944 110.058 392.634 114.705C392.634 114.705 396.807 116.569 399.695 124.379C402.584 132.19 392.527 144.784 389.883 143.851Z" fill="#263238"/>
<path d="M386.322 144.356C386.322 144.356 392.772 137.952 395.767 140.382C398.763 142.812 392.97 152.747 388.813 153.48C388.288 153.614 387.741 153.64 387.206 153.557C386.67 153.475 386.157 153.285 385.696 153C385.235 152.715 384.837 152.34 384.524 151.897C384.211 151.454 383.991 150.953 383.876 150.423L386.322 144.356Z" fill="#D3766A"/>
<path d="M394.04 143.194C394.04 143.194 394.04 143.286 394.04 143.301C391.106 143.912 389.195 146.19 387.713 148.635C387.921 148.388 388.18 148.189 388.473 148.052C388.766 147.916 389.086 147.845 389.409 147.845C389.732 147.845 390.052 147.916 390.345 148.052C390.638 148.189 390.898 148.388 391.106 148.635C391.106 148.635 391.106 148.788 390.999 148.757C390.545 148.516 390.028 148.422 389.519 148.488C389.009 148.553 388.533 148.776 388.156 149.124C387.531 149.713 386.968 150.363 386.475 151.065C386.291 151.295 385.878 151.065 386.031 150.821C386.627 147.244 390.219 142.858 394.04 143.194Z" fill="#263238"/>
<path d="M448.987 279.849C449.048 280.132 449.094 280.417 449.124 280.705C449.132 280.649 449.132 280.592 449.124 280.537C449.079 280.307 449.033 280.078 448.987 279.849Z" fill="#FFC727"/>
<path d="M448.987 279.849C449.048 280.132 449.094 280.417 449.124 280.705C449.132 280.649 449.132 280.592 449.124 280.537C449.079 280.307 449.033 280.078 448.987 279.849Z" fill="#FFC727"/>
<path d="M448.987 279.849C449.048 280.132 449.094 280.417 449.124 280.705C449.132 280.649 449.132 280.592 449.124 280.537C449.079 280.307 449.033 280.078 448.987 279.849Z" fill="#DBDBDB"/>
<path d="M12 24.3911V84.5797H72.265V24.3911H12ZM16.5852 80.0862V28.9304H67.7104V80.0862H16.5852Z" fill="#EBEBEB"/>
<path d="M259.281 9H54.8262V197.284H259.281V9Z" fill="#37474F"/>
<path d="M193.575 102.37C218.488 127.62 249.82 180.732 244.012 191.507C237.501 203.505 202.822 168.107 202.944 166.028C203.051 164.5 190.854 132.205 181.546 108.744C172.238 85.2827 187.416 96.1191 193.575 102.37Z" fill="#F7A9A0"/>
<path d="M202.683 166.074C201.629 162.62 185.015 120.085 180.277 106.619C175.539 93.154 179.926 89.0121 193.482 101.331C207.039 113.65 236.752 154.825 243.538 176.666C250.064 197.682 239.228 197.682 224.983 188.007C213.229 180.074 202.683 166.074 202.683 166.074Z" fill="#FFC727"/>
<path opacity="0.1" d="M191.129 102.722C190.805 104.61 189.994 106.38 188.775 107.857C188.929 106.916 189.212 106.001 189.616 105.137C190.012 104.269 190.52 103.457 191.129 102.722ZM232.213 161.229C231.798 162.089 231.515 163.006 231.372 163.95C231.994 163.222 232.509 162.409 232.9 161.535C233.304 160.671 233.587 159.755 233.741 158.814C233.113 159.538 232.598 160.352 232.213 161.229ZM217.525 138.869C217.112 139.735 216.829 140.656 216.684 141.604C217.303 140.869 217.818 140.051 218.212 139.174C218.62 138.312 218.903 137.396 219.053 136.454C218.434 137.184 217.919 137.997 217.525 138.869ZM202.24 133.259C201.381 132.845 200.464 132.561 199.52 132.419C200.997 133.637 202.768 134.449 204.655 134.773C203.936 134.158 203.133 133.648 202.271 133.259H202.24ZM215.996 155.865C215.13 155.452 214.208 155.169 213.26 155.024C213.996 155.643 214.814 156.158 215.69 156.552C216.553 156.96 217.469 157.243 218.411 157.393C217.69 156.776 216.888 156.262 216.027 155.865H215.996ZM204.808 117.15C203.948 116.735 203.031 116.452 202.088 116.309C202.815 116.932 203.629 117.447 204.503 117.838C205.363 118.25 206.28 118.533 207.223 118.678C206.505 118.058 205.702 117.544 204.839 117.15H204.808ZM196.28 147.336C196.603 148.234 197.051 149.083 197.609 149.858C197.423 147.949 196.743 146.121 195.638 144.554C195.736 145.507 195.963 146.443 196.31 147.336H196.28ZM225.06 174.267C225.38 175.166 225.828 176.016 226.389 176.788C226.203 174.88 225.523 173.052 224.418 171.485C224.507 172.44 224.733 173.376 225.09 174.267H225.06ZM205.679 169.681L206.184 170.277C207.017 169.97 207.804 169.548 208.522 169.024C207.556 169.12 206.608 169.357 205.71 169.727L205.679 169.681ZM239.778 185.76C240.678 185.44 241.527 184.992 242.3 184.43C241.347 184.51 240.41 184.726 239.518 185.072C238.616 185.387 237.766 185.835 236.996 186.402C237.957 186.333 238.903 186.132 239.809 185.806L239.778 185.76ZM188.622 123.416C187.999 123.647 187.396 123.928 186.819 124.257L186.956 124.639C187.609 124.524 188.249 124.345 188.867 124.104C189.774 123.79 190.629 123.342 191.404 122.775C190.46 122.877 189.534 123.109 188.653 123.462L188.622 123.416Z" fill="black"/>
<path d="M199.704 197.33H104.943C104.943 197.33 119.998 123.05 156.313 90.892C160.806 86.9181 170.924 87.8352 177.542 91.106C179.896 92.2828 188.363 104.128 190.778 115.331C193.193 126.534 199.979 196.994 199.704 197.33Z" fill="#FFC727"/>
<path d="M191.664 119.962C192.413 122.469 193.024 125.052 193.529 127.604C193.521 127.503 193.521 127.4 193.529 127.299C193.529 125.77 193.529 124.349 193.728 122.882C193.728 122.882 193.865 122.79 193.865 122.882C194.059 124.356 194.1 125.846 193.987 127.329C193.987 128.017 193.911 128.72 193.85 129.423C194.048 130.585 194.232 131.762 194.369 132.923C194.66 135.124 195.393 143.362 195.455 144.998C195.455 145.334 195.073 145.395 194.981 144.998C194.538 143.347 193.361 134.849 192.979 132.663C192.24 128.43 191.73 124.159 191.45 119.871C191.496 119.871 191.634 119.871 191.664 119.962Z" fill="#263238"/>
<path opacity="0.1" d="M162.319 110.287C162.164 111.23 161.876 112.146 161.463 113.008C161.077 113.885 160.562 114.699 159.935 115.423C160.092 114.481 160.38 113.565 160.79 112.702C161.18 111.827 161.694 111.014 162.319 110.287ZM149.48 148.009C149.066 148.868 148.782 149.785 148.64 150.729C149.858 149.252 150.67 147.481 150.993 145.594C150.376 146.322 149.867 147.135 149.48 148.009ZM118.713 161.504C118.301 162.37 118.018 163.292 117.873 164.24C118.492 163.51 119.006 162.697 119.401 161.825C119.814 160.959 120.097 160.038 120.242 159.089C119.623 159.819 119.108 160.632 118.713 161.504ZM141.334 185.699C140.919 186.559 140.636 187.476 140.493 188.42C141.107 187.686 141.621 186.874 142.022 186.005C142.42 185.133 142.703 184.214 142.862 183.269C142.237 184 141.723 184.819 141.334 185.699ZM180.813 138.96C180.407 139.829 180.124 140.75 179.972 141.696C180.597 140.965 181.112 140.146 181.5 139.266C181.915 138.406 182.198 137.489 182.341 136.545C181.727 137.279 181.213 138.091 180.813 138.96ZM193.254 164.622C192.841 165.488 192.558 166.41 192.413 167.358C193.032 166.628 193.547 165.815 193.942 164.943C194.354 164.077 194.637 163.156 194.782 162.207C194.167 162.94 193.653 163.753 193.254 164.622ZM163.144 183.116C162.745 183.987 162.463 184.907 162.304 185.852C162.928 185.12 163.443 184.302 163.832 183.422C164.245 182.56 164.533 181.644 164.688 180.701C164.064 181.431 163.544 182.243 163.144 183.116ZM134.303 133.091C133.893 133.954 133.605 134.87 133.447 135.812C134.075 135.088 134.59 134.274 134.976 133.397C135.388 132.535 135.677 131.619 135.832 130.676C135.207 131.403 134.692 132.216 134.303 133.091ZM170.098 124.654C169.239 124.24 168.322 123.957 167.378 123.814C168.105 124.436 168.919 124.951 169.793 125.342C170.656 125.748 171.572 126.031 172.513 126.183C171.786 125.56 170.972 125.046 170.098 124.654ZM176.075 155.131C175.215 154.716 174.298 154.433 173.354 154.29C174.085 154.908 174.898 155.422 175.769 155.819C176.631 156.226 177.547 156.509 178.489 156.659C177.766 156.032 176.952 155.516 176.075 155.131ZM120.379 187.426C119.518 187.013 118.602 186.725 117.659 186.57C118.383 187.198 119.197 187.713 120.074 188.099C120.937 188.507 121.853 188.795 122.794 188.954C122.071 188.327 121.256 187.812 120.379 187.426ZM177.053 193.54C176.189 193.134 175.274 192.851 174.332 192.699C175.06 193.322 175.873 193.836 176.747 194.228L177.328 194.487C177.832 194.487 178.321 194.487 178.856 194.579C178.287 194.192 177.684 193.86 177.053 193.586V193.54ZM141.67 162.696C140.808 162.289 139.892 162.006 138.95 161.856C139.673 162.484 140.487 162.999 141.364 163.384C142.226 163.794 143.142 164.078 144.085 164.225C143.351 163.624 142.538 163.125 141.67 162.742V162.696ZM170.098 97.6322C169.237 97.2195 168.321 96.9314 167.378 96.7763C168.106 97.3982 168.919 97.9128 169.793 98.3047C170.659 98.7034 171.573 98.986 172.513 99.1454C171.786 98.5393 170.972 98.0448 170.098 97.6781V97.6322ZM176.212 111.77C176.53 112.671 176.978 113.521 177.542 114.292C177.457 113.34 177.241 112.404 176.9 111.51C176.577 110.612 176.129 109.763 175.57 108.988C175.657 109.958 175.883 110.911 176.243 111.816L176.212 111.77ZM191.359 182.306C191.673 183.209 192.121 184.059 192.688 184.828C192.502 182.919 191.822 181.091 190.717 179.524C190.796 180.477 191.012 181.414 191.359 182.306ZM150.718 129.53C151.045 130.427 151.492 131.276 152.048 132.052C151.974 131.099 151.763 130.163 151.421 129.27C151.095 128.373 150.647 127.525 150.092 126.748C150.149 127.696 150.334 128.632 150.642 129.53H150.718ZM162.426 160.557C162.743 161.458 163.191 162.308 163.756 163.079C163.674 162.126 163.458 161.189 163.114 160.297C162.79 159.398 162.342 158.55 161.784 157.775C161.827 158.723 162.007 159.66 162.319 160.557H162.426ZM108.152 196.948C108.145 197.075 108.145 197.203 108.152 197.33H108.397L108.152 196.948ZM134.808 196.826C134.487 195.921 134.04 195.067 133.478 194.289C133.556 195.242 133.772 196.179 134.12 197.07L134.211 197.33H134.976C134.808 197.162 134.808 196.994 134.808 196.826ZM129.366 174.954C129.69 175.853 130.138 176.702 130.696 177.476C130.618 176.523 130.402 175.586 130.054 174.694C129.737 173.793 129.289 172.943 128.724 172.173C128.781 173.122 128.972 174.058 129.29 174.954H129.366ZM152.293 101.927C152.603 102.831 153.052 103.682 153.622 104.449C153.541 103.496 153.325 102.559 152.98 101.667C152.657 100.769 152.209 99.92 151.651 99.1454C151.709 100.096 151.904 101.033 152.231 101.927H152.293ZM177.603 173.502C178.502 173.179 179.35 172.731 180.125 172.173C179.172 172.247 178.235 172.458 177.343 172.799C176.446 173.126 175.597 173.573 174.821 174.129C175.774 174.055 176.711 173.844 177.603 173.502ZM152.782 196.306C153.681 195.986 154.531 195.538 155.303 194.976C153.395 195.163 151.567 195.842 150 196.948C150.953 196.869 151.89 196.653 152.782 196.306ZM110.613 175.657C110.613 175.871 110.475 176.085 110.414 176.299C110.871 176.075 111.306 175.809 111.713 175.505C111.344 175.531 110.976 175.582 110.613 175.657ZM132.225 149.384C133.129 149.064 133.984 148.616 134.762 148.054C133.808 148.132 132.871 148.348 131.98 148.696C131.075 149.016 130.221 149.464 129.443 150.026C130.395 149.941 131.331 149.725 132.225 149.384ZM152.094 174.481C153.011 174.189 153.881 173.767 154.677 173.227C152.768 173.414 150.94 174.093 149.373 175.199C150.315 175.091 151.236 174.849 152.109 174.481H152.094ZM163.847 138.487C164.749 138.16 165.603 137.713 166.384 137.157C165.432 137.229 164.495 137.44 163.603 137.783C162.704 138.107 161.855 138.554 161.081 139.113C162.028 139.039 162.96 138.828 163.847 138.487ZM188.837 124.15C189.744 123.836 190.599 123.388 191.374 122.82C190.42 122.898 189.483 123.114 188.592 123.462C187.691 123.779 186.841 124.227 186.07 124.792C187.039 124.718 187.992 124.502 188.898 124.15H188.837ZM144.161 115.774C145.061 115.454 145.91 115.006 146.683 114.445C144.774 114.631 142.947 115.311 141.38 116.416C142.354 116.343 143.312 116.127 144.223 115.774H144.161Z" fill="black"/>
<path d="M74.3584 61.6536C74.1597 57.0683 75.0768 36.175 76.6357 30.4129C78.1947 24.6509 83.8804 8.37333 88.4197 9.12225C92.9591 9.87117 91.6752 14.7621 91.6752 14.7621C91.6752 14.7621 95.16 8.26635 99.6688 9.42794C104.178 10.5895 101.916 18.1551 101.916 18.1551C101.916 18.1551 105.981 11.7511 110.398 13.2337C114.815 14.7162 111.269 21.9303 111.269 21.9303C111.269 21.9303 114.708 15.9084 117.826 18.6595C121.571 21.9609 113.959 32.4152 112.721 38.8498C112.431 40.3782 109.114 69.158 109.114 69.158L74.3584 61.6536Z" fill="#F7A9A0"/>
<path d="M111.56 21.3495C105.966 28.9915 104.851 33.3322 104.239 42.6402C104.239 42.8236 103.949 42.8389 103.949 42.6402C103.72 33.4698 104.346 27.8452 111.194 21.0438C111.53 20.7382 111.881 20.998 111.56 21.3495Z" fill="#263238"/>
<path d="M102.375 17.6049C97.2699 26.057 96.0166 30.7339 94.641 40.424C94.641 40.5616 94.3965 40.5463 94.3965 40.424C94.9467 30.7951 95.6956 25.14 101.901 17.4979C102.191 17.0547 102.604 17.2075 102.375 17.6049Z" fill="#263238"/>
<path d="M91.6142 15.297C87.2735 23.8408 85.684 28.9151 85.5006 38.4982C85.4893 38.5361 85.4661 38.5693 85.4344 38.5929C85.4027 38.6165 85.3643 38.6293 85.3248 38.6293C85.2853 38.6293 85.2469 38.6165 85.2152 38.5929C85.1835 38.5693 85.1603 38.5361 85.1491 38.4982C84.3237 28.7164 86.2648 22.3735 91.2627 15.1748C91.6906 14.7009 91.8893 14.7621 91.6142 15.297Z" fill="#263238"/>
<path d="M108.824 75.1647C108.824 75.1647 117.46 67.0183 120.471 62.6165C123.482 58.2147 128.648 37.627 124.261 36.2515C118.606 34.4938 113.287 45.7734 111.407 51.6425C111.407 51.6425 98.324 47.5464 92.7606 54.8216C87.1972 62.0968 108.824 75.1647 108.824 75.1647Z" fill="#F7A9A0"/>
<path d="M122.58 36.282C116.268 38.3912 114.296 46.2472 112.034 51.8106C112.005 51.8948 111.956 51.9706 111.892 52.0316C111.827 52.0927 111.748 52.1371 111.663 52.1612C111.577 52.1852 111.487 52.1881 111.4 52.1697C111.313 52.1512 111.232 52.1119 111.163 52.0552C105.569 50.6949 97.2851 50.4198 92.8221 54.4548C92.7978 54.4832 92.7632 54.5007 92.7259 54.5036C92.6887 54.5065 92.6518 54.4944 92.6234 54.4701C92.595 54.4458 92.5775 54.4112 92.5746 54.3739C92.5718 54.3366 92.5838 54.2998 92.6082 54.2714C96.903 49.2735 105.065 48.8914 111.102 50.756C113.318 45.0245 115.687 37.2144 122.641 36.2209C122.58 36.2056 122.58 36.2668 122.58 36.282Z" fill="#263238"/>
<path d="M161.6 101.973C155.914 111.816 123.054 142.155 94.3502 147.412C90.468 148.116 75.673 144.998 72.5704 135.185C67.0528 117.7 71.4699 81.5993 74.2822 59.8653C74.8324 55.6317 114.235 64.3436 113.211 70.824C112.08 78.0075 107.861 104.373 108.518 104.678C110.872 105.763 136.03 94.8811 152.582 91.3199C164.351 88.7828 165.987 94.392 161.6 101.973Z" fill="#F7A9A0"/>
<path d="M68.7654 70.5948L113.67 80.3154C113.67 80.3154 109.589 103.241 110.384 103.135C111.179 103.028 142.694 91.5033 154.845 90.2959C166.996 89.0885 166.981 94.4379 160.821 104.464C154.662 114.491 114.312 148.054 94.4273 148.054C84.3093 148.054 74.8943 141.574 73.0296 138.471C67.3592 128.903 68.7654 70.5948 68.7654 70.5948Z" fill="#455A64"/>
<path d="M68.7654 70.5948L113.67 80.3154C113.67 80.3154 109.589 103.241 110.384 103.135C111.179 103.028 142.694 91.5033 154.845 90.2959C166.996 89.0885 166.981 94.4379 160.821 104.464C154.662 114.491 114.312 148.054 94.4273 148.054C84.3093 148.054 74.8943 141.574 73.0296 138.471C67.3592 128.903 68.7654 70.5948 68.7654 70.5948Z" fill="#FFC727"/>
<path opacity="0.1" d="M133.111 102.569C132.703 103.431 132.42 104.347 132.27 105.29C132.898 104.566 133.413 103.752 133.799 102.875C134.211 102.014 134.494 101.097 134.639 100.154C134.022 100.886 133.508 101.698 133.111 102.569ZM97.4379 142.659C97.0234 143.519 96.74 144.436 96.5973 145.38C97.816 143.902 98.6274 142.132 98.9511 140.244C98.3373 140.975 97.828 141.788 97.4379 142.659ZM70.9965 115.148C70.5771 116.007 70.2886 116.924 70.1406 117.868C70.7625 117.14 71.2771 116.327 71.669 115.453C72.0692 114.588 72.3519 113.673 72.5096 112.733C71.8906 113.46 71.3809 114.274 70.9965 115.148ZM110.078 115.255C109.672 116.123 109.389 117.044 109.237 117.991C109.865 117.261 110.38 116.442 110.766 115.56C111.178 114.699 111.467 113.783 111.622 112.84C110.994 113.573 110.475 114.391 110.078 115.27V115.255ZM90.4837 126.596C90.0802 127.46 89.7974 128.375 89.6431 129.316C90.2708 128.592 90.786 127.778 91.1715 126.901C91.5842 126.039 91.8724 125.123 92.0274 124.181C91.4002 124.908 90.8803 125.721 90.4837 126.596ZM92.2261 98.9925C91.8159 99.854 91.5327 100.77 91.3855 101.713C92.6041 100.236 93.4155 98.4653 93.7392 96.5777C93.0951 97.3013 92.5597 98.1148 92.1497 98.9925H92.2261ZM72.1428 78.466C71.7301 79.3278 71.4419 80.2438 71.2869 81.1866C71.9195 80.4665 72.4352 79.6516 72.8153 78.7717C73.2258 77.9091 73.5138 76.9934 73.6712 76.0511C73.0487 76.7787 72.534 77.592 72.1428 78.466ZM152.889 101.652C152.568 100.752 152.12 99.9029 151.559 99.1301C151.636 100.084 151.853 101.021 152.201 101.912C152.512 102.812 152.955 103.662 153.515 104.434C153.449 103.488 153.249 102.556 152.919 101.667L152.889 101.652ZM126.294 119.993C125.971 119.094 125.523 118.245 124.965 117.471C125.044 118.424 125.26 119.361 125.606 120.253C125.921 121.155 126.369 122.005 126.936 122.775C126.858 121.834 126.652 120.908 126.325 120.023L126.294 119.993ZM106.318 99.3135C105.998 98.4136 105.55 97.5644 104.988 96.7916C105.175 98.7005 105.854 100.528 106.96 102.095C106.887 101.154 106.682 100.228 106.349 99.3441L106.318 99.3135ZM103.735 129.24C103.415 128.34 102.967 127.491 102.405 126.718C102.485 127.671 102.701 128.608 103.047 129.5C103.364 130.401 103.812 131.251 104.377 132.021C104.304 131.08 104.099 130.154 103.766 129.27L103.735 129.24ZM78.1189 126.015C77.8018 125.113 77.3538 124.264 76.7892 123.493C76.878 124.445 77.0938 125.38 77.4311 126.275C77.7516 127.174 78.1994 128.024 78.7608 128.796C78.69 127.855 78.4842 126.928 78.1495 126.045L78.1189 126.015ZM86.2042 83.7085C85.8841 82.8037 85.4363 81.9494 84.8744 81.1713C84.9487 82.1288 85.1597 83.0707 85.5011 83.9683C85.831 84.864 86.2781 85.712 86.8308 86.4902C86.7651 85.5493 86.5644 84.6227 86.2347 83.739L86.2042 83.7085ZM83.1474 107.704C82.8241 106.806 82.3765 105.957 81.8176 105.183C81.897 106.136 82.1132 107.073 82.4596 107.964C82.7767 108.866 83.2247 109.715 83.7893 110.486C83.7283 109.546 83.5327 108.62 83.2085 107.735L83.1474 107.704ZM143.978 115.148C143.078 115.468 142.229 115.916 141.456 116.477C142.409 116.396 143.346 116.18 144.238 115.836C145.138 115.515 145.987 115.067 146.76 114.506C145.806 114.585 144.87 114.801 143.978 115.148ZM96.4751 114.047C95.5794 114.377 94.7314 114.824 93.9532 115.377C94.9067 115.299 95.8438 115.083 96.7349 114.735C97.6362 114.418 98.4859 113.97 99.2567 113.405C98.3014 113.464 97.3594 113.659 96.4598 113.986L96.4751 114.047ZM100.969 85.833C100.07 86.1563 99.2211 86.6038 98.4467 87.1627C99.3949 87.0831 100.327 86.8669 101.213 86.5207C102.117 86.2099 102.968 85.7613 103.735 85.191C102.785 85.2495 101.848 85.4451 100.953 85.7718L100.969 85.833ZM75.4747 94.6824C74.5762 95.0057 73.7273 95.4533 72.9529 96.0121C74.8625 95.84 76.6925 95.165 78.2565 94.0558C77.3026 94.1148 76.3614 94.3051 75.4595 94.6213L75.4747 94.6824ZM117.857 132.893C116.96 133.219 116.112 133.666 115.336 134.222C117.245 134.05 119.075 133.375 120.639 132.266C119.681 132.339 118.739 132.55 117.842 132.893H117.857ZM83.7281 140.366C82.8283 140.687 81.979 141.135 81.2063 141.696C82.1598 141.619 83.0969 141.402 83.988 141.054C84.8893 140.737 85.739 140.289 86.5098 139.725C85.5514 139.802 84.6094 140.019 83.7129 140.366H83.7281ZM120.517 102.37C119.618 102.694 118.769 103.141 117.995 103.7C118.946 103.616 119.882 103.405 120.777 103.073C121.672 102.743 122.52 102.296 123.299 101.744C122.341 101.815 121.398 102.026 120.502 102.37H120.517Z" fill="black"/>
<path d="M110.735 103.333C110.394 106.756 109.796 110.148 108.947 113.482C108.198 116.875 107.128 120.161 106.135 123.478H106.013C106.884 120.146 107.541 116.737 108.244 113.36C108.947 109.982 109.482 106.604 110.353 103.272C110.353 103.028 110.751 103.104 110.735 103.333Z" fill="#263238"/>
<path d="M111.026 88.7828C105.829 87.4989 100.571 86.4749 95.2982 85.4814C90.0252 84.488 84.7522 83.464 79.4639 82.5928C76.4071 82.1037 73.4726 81.5993 70.4616 81.2019C70.4616 81.2019 70.3546 81.3242 70.4616 81.3395C75.6429 82.6386 80.9159 83.6779 86.1736 84.7172C91.4313 85.7566 96.7196 86.7348 101.993 87.6671C105.049 88.1867 107.984 88.6605 110.995 89.0426C111.102 89.0732 111.178 88.8287 111.026 88.7828Z" fill="#263238"/>
<path d="M125.851 134.65C126.677 133.917 127.594 133.29 128.465 132.617C129.336 131.945 130.146 131.288 131.002 130.646L136.199 126.657C139.653 123.982 143.046 121.216 146.469 118.495C148.426 116.967 150.352 115.438 152.277 113.787C152.285 113.78 152.295 113.775 152.305 113.772C152.315 113.768 152.326 113.767 152.336 113.768C152.347 113.768 152.357 113.771 152.367 113.776C152.376 113.781 152.385 113.787 152.392 113.795C152.399 113.803 152.404 113.812 152.408 113.823C152.411 113.833 152.413 113.843 152.412 113.854C152.411 113.865 152.408 113.875 152.404 113.885C152.399 113.894 152.392 113.903 152.384 113.91C150.031 116.126 147.646 118.312 145.201 120.421L146.118 119.978C147.066 119.504 147.983 118.999 148.9 118.449C148.9 118.449 149.037 118.526 148.9 118.571C148.039 119.179 147.141 119.73 146.21 120.222C145.751 120.467 145.293 120.711 144.819 120.925L144.131 121.216C143.581 121.689 143.031 122.163 142.465 122.622C139.072 125.393 135.608 128.058 132.072 130.615C131.053 131.318 130.06 132.006 129.092 132.679C128.037 133.366 127.013 134.131 125.897 134.757C125.878 134.747 125.863 134.731 125.855 134.712C125.847 134.692 125.845 134.671 125.851 134.65Z" fill="#263238"/>
<path d="M170.419 113.574L175.662 105.595L180.599 112.305L178.581 118.235L172.987 118.357L170.419 113.574Z" fill="#263238"/>
<path d="M172.987 118.357L163.694 180.151L173.125 201.931L181.638 179.478L178.581 118.235L172.987 118.357Z" fill="#263238"/>
<path d="M177.603 105.03C172.147 106.344 162.716 98.0602 158.972 91.2741C158.712 90.8156 159.4 85.9247 159.935 79.9333C160.256 76.2957 160.515 72.2913 160.5 68.5161L183.854 74.0337C182.551 78.6906 181.828 83.4903 181.699 88.3242C181.698 88.8384 181.754 89.351 181.867 89.8526C181.867 89.9291 181.867 90.0055 181.867 90.1125C182.326 93.0317 182.815 103.731 177.603 105.03Z" fill="#F7A9A0"/>
<path d="M162.074 68.9441C162.792 73.8656 166.124 90.0667 179.436 90.3418C180.239 90.3614 181.041 90.3154 181.836 90.2042C181.83 90.1177 181.83 90.0309 181.836 89.9444C181.725 89.4421 181.664 88.9302 181.653 88.416C181.793 83.582 182.522 78.7831 183.823 74.1254L162.074 68.9441Z" fill="#263238"/>
<path d="M155.059 42.4874C153.271 50.9395 159.736 74.3547 166.064 79.1691C175.234 86.1081 189.204 85.6037 194.828 74.8132C200.285 64.3589 191.328 34.0047 184.359 29.771C174.088 23.4434 157.734 29.985 155.059 42.4874Z" fill="#F7A9A0"/>
<path d="M175.906 56.3653C175.906 56.3653 175.799 56.4723 175.814 56.5334C176.288 58.0618 176.578 59.9723 175.294 60.8894C175.294 60.8894 175.294 60.9964 175.294 60.9658C177.006 60.2474 176.609 57.7714 175.906 56.3653Z" fill="#263238"/>
<path d="M174.041 55.0967C171.458 55.5858 172.635 60.7365 175.035 60.278C177.434 59.8195 176.212 54.6841 174.041 55.0967Z" fill="#263238"/>
<path d="M185.414 54.0115C185.414 53.9351 185.551 54.0116 185.566 54.1185C185.872 55.7234 186.514 57.5116 188.073 57.7103V57.802C186.27 57.9395 185.444 55.54 185.414 54.0115Z" fill="#263238"/>
<path d="M186.452 51.9941C188.974 51.2146 190.349 56.3194 187.98 57.0378C185.611 57.7561 184.343 52.6513 186.452 51.9941Z" fill="#263238"/>
<path d="M171.489 53.2168C172.146 52.8805 172.697 52.4526 173.323 52.0552C173.95 51.6578 174.622 51.3063 174.959 50.5268C175.032 50.2928 175.026 50.0408 174.94 49.811C174.854 49.5811 174.694 49.3866 174.485 49.2582C174.034 49.0583 173.537 48.984 173.048 49.0432C172.558 49.1024 172.093 49.2929 171.703 49.5944C170.815 50.0831 170.14 50.8836 169.808 51.8412C169.749 52.0627 169.755 52.2965 169.825 52.5147C169.896 52.7329 170.027 52.9261 170.205 53.0713C170.382 53.2165 170.598 53.3074 170.826 53.3332C171.053 53.359 171.284 53.3186 171.489 53.2168Z" fill="#A6A6A6"/>
<path d="M187.843 48.9525C187.12 48.9905 186.395 48.9905 185.672 48.9525C184.909 49.0416 184.139 48.8691 183.487 48.4634C183.302 48.2981 183.178 48.0763 183.134 47.8328C183.09 47.5893 183.128 47.338 183.242 47.1185C183.532 46.7209 183.923 46.4079 184.374 46.2118C184.826 46.0157 185.321 45.9435 185.81 46.0027C186.82 45.9673 187.806 46.3108 188.576 46.9656C188.724 47.1271 188.824 47.326 188.866 47.5406C188.908 47.7552 188.89 47.9773 188.814 48.1824C188.738 48.3875 188.608 48.5679 188.436 48.7037C188.265 48.8395 188.06 48.9256 187.843 48.9525Z" fill="#A6A6A6"/>
<path d="M178.902 65.9178C179.457 66.4483 180.115 66.8581 180.836 67.1212C181.557 67.3842 182.324 67.4949 183.09 67.4462C183.761 67.4272 184.425 67.3087 185.062 67.0947L185.413 66.9724L185.765 66.8349C185.843 66.7969 185.908 66.7351 185.949 66.6582C185.99 66.5813 186.006 66.4933 185.994 66.4069C186 66.3511 186 66.2947 185.994 66.2388V66.1012C185.749 64.8632 185.199 63.0444 185.199 63.0444C185.704 63.1667 188.256 63.6711 188.042 63.0444C186.628 57.5464 184.662 52.2055 182.173 47.1031C182.159 47.0646 182.13 47.0334 182.093 47.0162C182.055 46.999 182.013 46.9973 181.974 47.0114C181.936 47.0256 181.905 47.0545 181.887 47.0918C181.87 47.1291 181.868 47.1716 181.883 47.2101C183.166 52.2997 185.322 57.1295 186.682 62.2191C185.784 62.0261 184.862 61.9643 183.946 62.0357C183.778 62.1274 185.062 65.5663 185.138 66.1318C184.156 66.4685 183.115 66.6015 182.08 66.5226C181.045 66.4438 180.036 66.1548 179.116 65.6733C178.887 65.6733 178.78 65.8108 178.902 65.9178Z" fill="#263238"/>
<path d="M184.206 66.8807C183.682 67.894 182.909 68.7568 181.959 69.3873C181.434 69.701 180.827 69.8501 180.216 69.8153C178.856 69.7083 178.688 68.5314 178.688 67.4921C178.714 66.9318 178.812 66.3771 178.978 65.8414C180.567 66.7333 182.397 67.0973 184.206 66.8807Z" fill="#263238"/>
<path d="M181.959 69.3873C181.434 69.701 180.827 69.8501 180.216 69.8153C178.856 69.7083 178.688 68.5314 178.688 67.4921C179.367 67.3955 180.058 67.5298 180.651 67.8735C181.245 68.2172 181.705 68.7504 181.959 69.3873Z" fill="#FF9CBD"/>
<g opacity="0.2">
<path d="M178.367 45.3914C179.214 45.3175 180.057 45.1899 180.888 45.0093C181.729 44.7953 182.508 44.4132 183.349 44.2145C184.962 43.9315 186.612 43.9315 188.225 44.2145C188.362 44.2145 188.362 44.3215 188.225 44.3062C186.518 44.075 184.782 44.2158 183.135 44.7189C181.823 45.2393 180.444 45.5737 179.039 45.7123C175.816 45.7315 172.681 46.7693 170.083 48.6774C172.453 46.7786 175.339 45.634 178.367 45.3914Z" fill="black"/>
<path d="M177.816 43.1599C178.624 43.1038 179.426 42.9863 180.216 42.8083C181.01 42.6096 181.744 42.2428 182.554 42.0594C184.071 41.7952 185.622 41.7952 187.139 42.0594C187.277 42.0594 187.277 42.1664 187.139 42.1511C185.519 41.9448 183.874 42.0802 182.31 42.5485C181.066 43.0416 179.759 43.3555 178.428 43.4808C175.373 43.5055 172.404 44.4952 169.945 46.3084C172.197 44.5 174.938 43.4039 177.816 43.1599Z" fill="black"/>
</g>
<path d="M157.382 62.6623C157.382 62.6623 149.189 49.1665 149.954 41.3564C150.29 37.8257 155.089 35.4567 155.089 35.4567C154.72 34.0171 154.761 32.503 155.207 31.0853C155.652 29.6676 156.485 28.4025 157.611 27.4326C161.784 23.5046 171.886 24.3758 171.886 24.3758C171.886 24.3758 178.428 14.9149 187.69 18.6595C196.952 22.4041 190.93 32.9043 190.93 32.9043C190.93 32.9043 194.323 37.734 186.024 41.5092C177.725 45.2844 161.417 41.5856 161.417 41.5856C162.191 47.2718 162.109 53.042 161.172 58.7038C160.965 59.6483 160.502 60.5176 159.834 61.216C159.165 61.9144 158.316 62.4149 157.382 62.6623Z" fill="#A6A6A6"/>
<path d="M173.476 24.498C171.41 23.6586 169.193 23.2578 166.965 23.3212C164.97 23.2883 162.985 23.5985 161.096 24.2382C159.395 24.7205 157.858 25.6567 156.649 26.9465C155.44 28.2363 154.605 29.8309 154.233 31.5593C154.098 32.4562 154.144 33.3711 154.367 34.2503C154.59 35.1295 154.986 35.9553 155.532 36.6794C155.532 36.6794 155.67 36.6794 155.624 36.6794C153.484 34.02 154.6 29.8933 156.816 27.6771C159.523 25.3232 162.995 24.0356 166.583 24.0548C168.88 24.0257 171.173 24.2668 173.415 24.7731C173.552 24.7273 173.598 24.5592 173.476 24.498Z" fill="#A6A6A6"/>
<path d="M161.86 61.4243C161.86 61.4243 155.655 54.3325 152.369 56.6251C149.083 58.9178 154.356 69.6166 158.605 70.6865C159.141 70.8645 159.708 70.9316 160.272 70.8838C160.835 70.836 161.382 70.6743 161.881 70.4085C162.38 70.1426 162.82 69.7782 163.173 69.3373C163.527 68.8964 163.788 68.3882 163.939 67.8436L161.86 61.4243Z" fill="#F7A9A0"/>
<path d="M153.958 59.6514V59.7583C157.015 60.6142 158.757 63.1055 160.072 65.7497C159.871 65.4825 159.616 65.2613 159.323 65.101C159.03 64.9407 158.706 64.8451 158.373 64.8204C158.04 64.7958 157.705 64.8428 157.392 64.9583C157.079 65.0738 156.794 65.255 156.556 65.4899C156.536 65.5041 156.522 65.5257 156.518 65.5501C156.514 65.5744 156.519 65.5995 156.533 65.6198C156.548 65.6401 156.569 65.6539 156.594 65.6582C156.618 65.6625 156.643 65.6569 156.663 65.6427C157.148 65.4256 157.688 65.3648 158.208 65.4689C158.729 65.573 159.204 65.8368 159.567 66.2235C160.152 66.8798 160.665 67.5971 161.096 68.3633C161.249 68.6078 161.707 68.3633 161.569 68.134C161.325 64.4047 157.917 59.5902 153.958 59.6514Z" fill="#263238"/>
<path d="M175.448 64.7104C174.109 64.8903 172.747 64.6909 171.517 64.1349C170.286 63.579 169.236 62.6888 168.486 61.5656C167.737 60.4424 167.317 59.1313 167.276 57.7815C167.234 56.4317 167.573 55.0974 168.252 53.9305C168.932 52.7635 169.925 51.8106 171.12 51.1804C172.314 50.5501 173.661 50.2678 175.008 50.3654C176.355 50.463 177.647 50.9367 178.738 51.7326C179.829 52.5285 180.675 53.6147 181.179 54.8674C181.532 55.7466 181.709 56.6867 181.699 57.6341C181.689 58.5815 181.492 59.5177 181.121 60.3891C180.749 61.2605 180.209 62.0502 179.532 62.713C178.855 63.3758 178.054 63.8987 177.175 64.2519C176.618 64.4704 176.039 64.6243 175.448 64.7104ZM173.675 51.3521C173.152 51.4258 172.639 51.5592 172.146 51.7495C170.675 52.3395 169.483 53.4678 168.814 54.905C168.145 56.3422 168.048 57.9804 168.543 59.4863C169.039 60.9923 170.089 62.253 171.481 63.0121C172.873 63.7712 174.502 63.9716 176.036 63.5727C177.57 63.1738 178.895 62.2054 179.741 60.8645C180.587 59.5236 180.89 57.9109 180.59 56.3543C180.289 54.7978 179.406 53.4142 178.122 52.485C176.837 51.5557 175.247 51.1507 173.675 51.3521Z" fill="#455A64"/>
<path d="M191.465 60.5226C188.729 60.8894 185.871 58.4134 184.939 54.7758C184.47 53.0354 184.556 51.1922 185.183 49.5028C185.407 48.763 185.819 48.0938 186.378 47.5601C186.937 47.0264 187.624 46.6465 188.373 46.4572C189.123 46.268 189.908 46.2759 190.654 46.4801C191.399 46.6844 192.079 47.078 192.627 47.6228C194.009 48.8141 194.964 50.4241 195.347 52.208C196.326 56.0596 194.797 59.8501 191.924 60.5073C191.772 60.5268 191.618 60.5319 191.465 60.5226ZM188.974 47.3324H188.607C188.018 47.514 187.481 47.8334 187.039 48.2639C186.598 48.6945 186.266 49.2239 186.07 49.8084C185.525 51.3048 185.456 52.9328 185.871 54.4701C186.727 57.8173 189.325 60.0488 191.679 59.4374C194.033 58.826 195.271 55.647 194.415 52.2998C194.052 50.7473 193.213 49.3472 192.015 48.2953C191.605 47.9302 191.121 47.6557 190.597 47.4898C190.073 47.3239 189.52 47.2703 188.974 47.3324Z" fill="#455A64"/>
<path d="M181.164 55.7234L180.37 55.1579C181.21 53.9963 183.35 52.1775 185.52 53.6295L185.001 54.4395C183.06 53.1404 181.241 55.6164 181.164 55.7234Z" fill="#455A64"/>
<path d="M150.474 65.4287L149.542 65.2148C149.633 64.7715 150.581 60.9199 152.598 60.0488C154.616 59.1776 167.302 57.2212 167.882 57.1448L168.035 58.0924C164.352 58.6732 154.478 60.2933 153.026 60.9352C151.574 61.5772 150.718 64.3741 150.474 65.4287Z" fill="#455A64"/>
<path d="M181.822 89.6387L175.295 103.028L159.446 84.5797L154.234 89.8221C154.234 89.8221 169.014 118.526 169.197 117.333L175.662 105.901L183.304 114.689L184.053 93.9947L181.822 89.6387Z" fill="#EBEBEB"/>
<path d="M184.206 104.357C184.206 100.934 184.329 97.4947 184.206 94.0711C184.206 93.9641 184.008 93.8877 183.977 94.0711C183.075 97.3113 183.091 110.394 182.861 113.512C182.556 113.146 175.8 105.763 175.724 105.87C174.363 107.659 169.61 115.988 169.289 116.753C166.966 112.167 157.948 95.5842 155.121 91.2282C155.103 91.2063 155.079 91.1911 155.051 91.185C155.024 91.179 154.996 91.1825 154.97 91.195C154.945 91.2076 154.925 91.2283 154.914 91.2539C154.902 91.2794 154.9 91.3081 154.907 91.3352C156.909 96.1191 168.815 118.464 169.014 118.419C171.479 114.509 173.739 110.474 175.785 106.329C176.901 107.857 183.656 116.172 183.717 115.667C184.074 111.908 184.237 108.133 184.206 104.357Z" fill="#263238"/>
<path d="M243.981 191.568C238.372 199.577 223.103 201.121 185.046 208.564C179.773 209.603 162.487 174.389 168.05 172.998C175.066 171.24 202.669 165.967 204.732 165.83C222.171 164.668 247.787 186.066 243.981 191.568Z" fill="#F7A9A0"/>
<path d="M175.677 171.194C175.677 171.194 159.537 173.64 151.467 177.537C143.175 181.81 136.042 188.03 130.681 195.664C124.873 203.887 116.497 227.761 122.963 231.398C128.816 234.669 136.137 209.817 136.137 209.817C136.137 209.817 124.491 233.92 132.255 236.564C140.02 239.209 146.882 209.909 146.882 209.909C146.882 209.909 135.465 234.96 143.902 236.412C150.29 237.512 157.994 211.285 157.994 211.285C157.994 211.285 148.334 232.881 154.845 234.302C162.044 235.831 170.679 212.095 170.679 212.095C187.828 212.905 196.326 206.271 201.813 200.83C203.143 199.47 175.677 171.194 175.677 171.194Z" fill="#F7A9A0"/>
<path d="M139.622 201.212C138.094 203.994 136.642 206.806 135.434 209.71C134.227 212.614 133.096 215.564 132.148 218.56C130.845 222.465 129.989 226.505 129.596 230.604C130.818 223.389 135.022 212.92 136.244 210.016C137.467 207.112 138.522 204.147 139.744 201.258C139.775 201.182 139.668 201.151 139.622 201.212Z" fill="#263238"/>
<path d="M150.198 205.415C148.471 209.053 146.622 212.599 145.063 216.313C143.504 220.027 142.358 223.649 141.059 227.44C140.952 227.73 141.15 227.684 141.257 227.44C142.709 223.71 144.314 220.363 145.842 216.649C147.371 212.935 148.685 209.145 150.305 205.492C150.305 205.4 150.214 205.324 150.198 205.415Z" fill="#263238"/>
<path d="M159.92 207.402C157.135 212.91 154.933 218.694 153.347 224.658C153.256 224.948 153.5 224.872 153.592 224.566C155.671 218.789 157.26 214.25 160.103 207.494C160.149 207.402 159.981 207.28 159.92 207.402Z" fill="#263238"/>
<path d="M172.315 171.194L205.665 208.381C205.665 208.381 239.397 200.647 244.364 191.996C247.635 186.295 222.233 163.231 203.097 165.921L172.315 171.194Z" fill="#FFC727"/>
<path opacity="0.1" d="M201.919 194.38C201.772 195.323 201.489 196.239 201.079 197.101C200.693 197.978 200.178 198.792 199.55 199.516C199.7 198.574 199.983 197.658 200.391 196.795C200.788 195.924 201.302 195.112 201.919 194.38ZM225.09 192.286C224.685 193.155 224.402 194.076 224.249 195.022C224.874 194.291 225.389 193.472 225.778 192.592C226.191 191.73 226.479 190.814 226.634 189.872C226.01 190.601 225.49 191.414 225.09 192.286ZM208.568 184.492C207.708 184.077 206.791 183.794 205.847 183.651C207.325 184.87 209.095 185.681 210.983 186.005C210.254 185.388 209.441 184.878 208.568 184.492ZM225.09 174.267C225.411 175.166 225.858 176.016 226.42 176.788C226.233 174.88 225.554 173.052 224.448 171.485C224.528 172.438 224.744 173.375 225.09 174.267ZM191.358 182.306C191.672 183.209 192.121 184.059 192.688 184.828C192.501 182.919 191.822 181.091 190.716 179.524C190.796 180.477 191.012 181.414 191.358 182.306ZM177.603 173.502C178.501 173.179 179.35 172.731 180.124 172.173C179.172 172.247 178.235 172.458 177.343 172.799C176.445 173.126 175.597 173.573 174.821 174.129C175.773 174.055 176.71 173.844 177.603 173.502ZM206 170.445C206.899 170.122 207.748 169.675 208.522 169.116C207.57 169.192 206.633 169.403 205.74 169.742C204.845 170.072 203.997 170.519 203.219 171.072C204.161 170.984 205.086 170.768 205.97 170.43L206 170.445ZM216.516 203.092C217.416 202.772 218.265 202.324 219.038 201.763C218.084 201.84 217.147 202.056 216.256 202.404C215.355 202.722 214.505 203.17 213.734 203.734C214.677 203.645 215.603 203.424 216.485 203.077L216.516 203.092ZM241.582 184.568C240.898 184.695 240.228 184.885 239.579 185.133C238.68 185.454 237.83 185.902 237.057 186.463C238.01 186.376 238.945 186.16 239.839 185.821C240.53 185.575 241.192 185.252 241.811 184.858L241.582 184.568Z" fill="black"/>
<path d="M225.931 171.913C219.302 167.123 211.139 164.946 203.005 165.799C202.913 165.799 202.913 165.967 203.005 165.967C211.38 165.738 222.675 170.109 225.839 172.004C225.946 172.111 226.023 171.974 225.931 171.913Z" fill="#263238"/>
<path d="M214.789 202.114C211.335 197.835 207.667 193.754 203.968 189.673C200.269 185.592 196.601 181.496 192.811 177.446C190.671 175.199 188.547 172.86 186.33 170.751C186.318 170.735 186.3 170.724 186.28 170.721C186.26 170.719 186.24 170.724 186.223 170.736C186.207 170.748 186.197 170.766 186.194 170.786C186.191 170.806 186.196 170.827 186.208 170.843C189.662 175.107 193.315 179.219 196.907 183.315C200.499 187.411 204.274 191.507 208.018 195.542C210.128 197.819 212.283 200.127 214.499 202.252C214.682 202.405 214.881 202.267 214.789 202.114Z" fill="#263238"/>
<path d="M172.254 170.721C174.301 170.096 176.39 169.616 178.505 169.284C180.599 168.902 182.723 168.535 184.832 168.199C189.035 167.526 197.87 165.616 205.634 165.631C205.726 165.631 205.282 166.059 205.191 166.044C201.492 165.845 175.005 171.118 172.834 171.271C172.911 171.424 173.002 171.561 173.064 171.714C173.086 171.738 173.098 171.771 173.096 171.804C173.095 171.837 173.08 171.868 173.056 171.89C173.032 171.912 172.999 171.924 172.966 171.922C172.934 171.921 172.902 171.907 172.88 171.882C172.605 171.699 172.422 171.47 172.162 171.271C172.113 171.238 172.074 171.192 172.051 171.138C172.027 171.084 172.02 171.024 172.03 170.966C172.039 170.908 172.066 170.854 172.105 170.81C172.145 170.767 172.197 170.736 172.254 170.721Z" fill="#263238"/>
</svg>
