<svg width="106" height="25" viewBox="0 0 106 25" fill="none" xmlns="http://www.w3.org/2000/svg">
<path d="M4.496 24.304C3.57867 23.7067 3.03467 23.1093 2.864 22.512C2.71467 21.9147 2.928 21.4347 3.504 21.072C3.632 20.9867 3.87733 20.976 4.24 21.04C4.624 21.104 4.912 21.232 5.104 21.424C5.53067 21.808 6.01067 22.0427 6.544 22.128C7.09867 22.2347 7.77067 22.1813 8.56 21.968C9.456 21.6907 10.1387 21.3493 10.608 20.944C11.0987 20.5173 11.6427 19.9413 12.24 19.216C12.688 18.64 12.9973 18.0747 13.168 17.52C13.36 16.9653 13.4453 16.464 13.424 16.016C13.424 15.5467 13.3173 15.1947 13.104 14.96C12.5707 14.2133 11.9093 13.7013 11.12 13.424C10.3307 13.1253 9.296 13.1467 8.016 13.488C7.86667 13.5093 7.64267 13.552 7.344 13.616C7.04533 13.68 6.77867 13.744 6.544 13.808C6.30933 13.8507 6.18133 13.872 6.16 13.872C6.01067 13.9147 5.89333 13.936 5.808 13.936C5.72267 13.936 5.616 14.0427 5.488 14.256C5.38133 14.448 5.21067 14.864 4.976 15.504C4.74133 16.1227 4.38933 17.0827 3.92 18.384C3.472 19.6853 3.088 20.6133 2.768 21.168C2.46933 21.7013 2.20267 21.9467 1.968 21.904C1.73333 21.84 1.46667 21.6053 1.168 21.2C0.997334 20.9013 0.805333 20.5707 0.592 20.208C0.4 19.8453 0.410667 19.472 0.624 19.088C0.730667 18.896 0.816 18.7253 0.88 18.576C0.944 18.4053 1.02933 18.1173 1.136 17.712C1.24267 17.392 1.44533 16.8373 1.744 16.048C2.064 15.2373 2.43733 14.2987 2.864 13.232C3.29067 12.144 3.73867 11.024 4.208 9.872C4.67733 8.72 5.12533 7.632 5.552 6.608C6 5.584 6.37333 4.72 6.672 4.016C6.97067 3.35467 7.152 2.87466 7.216 2.576C7.28 2.27733 7.25867 2.11733 7.152 2.096C7.152 1.98933 7.12 1.89333 7.056 1.808C6.992 1.70133 6.97067 1.60533 6.992 1.52C6.992 1.43467 7.17333 1.31733 7.536 1.168C7.92 1.01867 8.32533 0.879999 8.752 0.751999C9.17867 0.623999 9.488 0.581333 9.68 0.623999C9.78667 0.623999 9.91467 0.623999 10.064 0.623999C10.2133 0.602666 10.288 0.549332 10.288 0.463999C10.352 0.463999 10.5547 0.442666 10.896 0.4C11.2373 0.357332 11.6107 0.357332 12.016 0.4C13.4453 0.527999 14.6187 0.943999 15.536 1.648C16.4533 2.33067 16.9013 3.42933 16.88 4.944C16.8587 5.30667 16.7093 5.776 16.432 6.352C16.1547 6.928 15.8027 7.504 15.376 8.08C14.9707 8.656 14.5333 9.15733 14.064 9.584C13.7867 9.81867 13.488 10.064 13.168 10.32C12.8693 10.5547 12.6027 10.7573 12.368 10.928C12.1547 11.0773 12.048 11.152 12.048 11.152C12.048 11.152 12.1333 11.184 12.304 11.248C12.4747 11.312 12.656 11.376 12.848 11.44C13.8293 11.8027 14.5973 12.2613 15.152 12.816C15.728 13.3707 16.1333 14.1387 16.368 15.12C16.4533 15.44 16.4533 15.8347 16.368 16.304C16.304 16.7733 16.208 17.2427 16.08 17.712C15.952 18.16 15.8133 18.544 15.664 18.864C15.5147 19.0133 15.3973 19.1733 15.312 19.344C15.2267 19.4933 15.184 19.568 15.184 19.568C15.184 19.6107 15.0987 19.7813 14.928 20.08C14.7573 20.3573 14.5547 20.6667 14.32 21.008C14.0853 21.3493 13.8613 21.648 13.648 21.904C13.4347 22.0747 13.1253 22.3093 12.72 22.608C12.336 22.928 11.9093 23.2373 11.44 23.536C10.992 23.8347 10.5653 24.0587 10.16 24.208C9.56267 24.464 8.89067 24.6347 8.144 24.72C7.41867 24.8267 6.72533 24.8373 6.064 24.752C5.40267 24.688 4.88 24.5387 4.496 24.304ZM6.8 11.024C6.8 11.024 6.97067 10.992 7.312 10.928C7.67467 10.8427 8.06933 10.7573 8.496 10.672C8.92267 10.5653 9.24267 10.4693 9.456 10.384C9.56267 10.32 9.712 10.2347 9.904 10.128C10.1173 10.0213 10.3307 9.86133 10.544 9.648C10.8427 9.37067 11.1627 9.06133 11.504 8.72C11.8453 8.35733 12.176 7.97333 12.496 7.568C12.8373 7.16267 13.1253 6.72533 13.36 6.256C13.8507 5.488 14.1173 4.93333 14.16 4.592C14.2027 4.25067 14.0853 3.94133 13.808 3.664C13.616 3.42933 13.3493 3.25867 13.008 3.152C12.6667 3.024 12.2933 2.96 11.888 2.96C11.504 2.93867 11.1307 2.98133 10.768 3.088C10.4907 3.17333 10.2773 3.28 10.128 3.408C9.97867 3.51467 9.904 3.68533 9.904 3.92C9.904 4.112 9.84 4.31467 9.712 4.528C9.60533 4.72 9.49867 4.86933 9.392 4.976C9.37067 5.12533 9.296 5.27467 9.168 5.424C9.06133 5.552 9.008 5.616 9.008 5.616C9.008 5.70133 8.86933 5.968 8.592 6.416C8.336 6.84267 8.05867 7.46133 7.76 8.272C7.376 9.18933 7.12 9.85067 6.992 10.256C6.864 10.6613 6.8 10.9173 6.8 11.024ZM20.126 21.776C19.8487 21.776 19.6247 21.7227 19.454 21.616C19.3047 21.5093 19.1127 21.36 18.878 21.168C18.4727 20.7413 18.142 20.2827 17.886 19.792C17.6513 19.3013 17.566 18.8747 17.63 18.512C17.694 18.3413 17.7153 18.1813 17.694 18.032C17.694 17.8613 17.694 17.776 17.694 17.776C17.5873 17.6693 17.5553 17.6053 17.598 17.584C17.6407 17.5413 17.6833 17.4773 17.726 17.392C17.854 17.392 17.8967 17.2747 17.854 17.04C17.8113 16.8693 17.8753 16.5067 18.046 15.952C18.238 15.376 18.494 14.832 18.814 14.32C18.942 14.1067 19.134 13.8293 19.39 13.488C19.646 13.1253 19.9233 12.7733 20.222 12.432C20.542 12.0693 20.83 11.7813 21.086 11.568C21.6193 11.12 22.11 10.7573 22.558 10.48C23.0273 10.2027 23.4967 10.0107 23.966 9.904C24.4353 9.79733 24.9153 9.744 25.406 9.744C25.918 9.744 26.334 9.91467 26.654 10.256C27.1447 10.4693 27.486 10.7573 27.678 11.12C27.8913 11.4827 28.03 11.952 28.094 12.528C28.158 13.168 28.094 13.9573 27.902 14.896C27.71 15.8133 27.1873 16.88 26.334 18.096C25.8007 18.864 25.278 19.4613 24.766 19.888C24.254 20.3147 23.6887 20.7093 23.07 21.072C22.622 21.3707 22.142 21.552 21.63 21.616C21.118 21.68 20.6167 21.7333 20.126 21.776ZM23.39 17.872C23.8593 17.4667 24.19 17.0187 24.382 16.528C24.5953 16.0373 24.8193 15.4613 25.054 14.8C25.1393 14.672 25.1927 14.4587 25.214 14.16C25.2567 13.8613 25.2673 13.5733 25.246 13.296C25.2247 12.9973 25.15 12.8267 25.022 12.784C24.83 12.6347 24.638 12.6027 24.446 12.688C24.254 12.752 24.0087 12.8907 23.71 13.104C23.07 13.6373 22.4727 14.256 21.918 14.96C21.3847 15.6427 21.0113 16.4853 20.798 17.488C20.734 18.0213 20.7873 18.4267 20.958 18.704C21.15 18.96 21.4487 19.0347 21.854 18.928C22.2807 18.8 22.7927 18.448 23.39 17.872ZM32.5838 21.744C32.1358 21.8293 31.7944 21.808 31.5598 21.68C31.3464 21.5307 31.1224 21.3493 30.8878 21.136C30.5464 20.9653 30.2371 20.7307 29.9598 20.432C29.6824 20.112 29.4691 19.7813 29.3198 19.44C29.1704 19.0987 29.1064 18.832 29.1278 18.64C29.1918 17.8933 29.3624 17.0827 29.6398 16.208C29.9384 15.3333 30.3118 14.48 30.7598 13.648C31.2291 12.816 31.7518 12.08 32.3278 11.44C32.9251 10.7787 33.5651 10.2987 34.2478 10C34.6744 9.82933 35.1331 9.76533 35.6238 9.808C36.1144 9.85067 36.4451 10.0533 36.6158 10.416C36.9358 11.0347 36.8611 11.4293 36.3918 11.6C36.3278 11.6 36.2531 11.632 36.1678 11.696C36.0824 11.7387 36.0398 11.8027 36.0398 11.888C36.1251 11.9307 36.3598 11.9413 36.7438 11.92C37.1278 11.8773 37.5118 11.8133 37.8958 11.728C38.3011 11.6213 38.5678 11.5147 38.6958 11.408C38.8238 11.344 38.9198 11.312 38.9838 11.312C39.0478 11.312 39.2078 11.3333 39.4638 11.376C39.8264 11.4827 40.0078 11.6107 40.0078 11.76C40.0078 11.8453 40.0398 11.984 40.1038 12.176C40.1678 12.3467 40.2424 12.432 40.3278 12.432C40.4771 12.4533 40.5091 12.6027 40.4238 12.88C40.3598 13.1573 40.1144 13.4453 39.6878 13.744C39.2824 14 39.0264 14.1707 38.9198 14.256C38.8344 14.32 38.8238 14.4693 38.8878 14.704C39.0584 15.1093 39.0478 15.6 38.8558 16.176C38.6638 16.752 38.3438 17.3493 37.8958 17.968C37.4478 18.5867 36.9144 19.1733 36.2958 19.728C35.6984 20.2613 35.0691 20.72 34.4078 21.104C33.7678 21.4667 33.1598 21.68 32.5838 21.744ZM32.6798 19.056C32.7651 19.056 32.9144 19.0133 33.1278 18.928C33.3411 18.8213 33.5118 18.736 33.6398 18.672C33.7251 18.5867 33.8318 18.4907 33.9598 18.384C34.1091 18.256 34.2264 18.1813 34.3118 18.16C34.3971 18.16 34.4504 18.128 34.4718 18.064C34.4931 17.9787 34.5678 17.8187 34.6958 17.584C34.8238 17.328 35.0798 16.9547 35.4638 16.464C35.8904 15.9947 36.1678 15.6213 36.2958 15.344C36.4238 15.0453 36.4344 14.7253 36.3278 14.384C36.3064 14.2987 36.2424 14.2453 36.1358 14.224C36.0504 14.2027 35.9331 14.1493 35.7838 14.064C35.5704 14.064 35.4211 14.1173 35.3358 14.224C35.2718 14.3093 35.1224 14.256 34.8878 14.064L34.3758 13.424L33.8318 13.968C33.4904 14.3093 33.1811 14.736 32.9038 15.248C32.6478 15.76 32.4451 16.2827 32.2958 16.816C32.1464 17.3493 32.0504 17.8187 32.0078 18.224C31.9864 18.544 32.0398 18.7573 32.1678 18.864C32.2958 18.9707 32.4664 19.0347 32.6798 19.056ZM42.0335 22.096C41.8628 22.032 41.6388 21.8613 41.3615 21.584C41.0842 21.2853 40.8388 20.9653 40.6255 20.624C40.4122 20.2613 40.3055 19.9627 40.3055 19.728C40.4122 19.4933 40.5508 19.0773 40.7215 18.48C40.9135 17.8827 41.1268 17.2107 41.3615 16.464C41.5322 16.2293 41.6602 15.9627 41.7455 15.664C41.8522 15.344 41.9482 15.056 42.0335 14.8C42.2042 14.416 42.3962 13.9787 42.6095 13.488C42.8228 12.9973 43.0255 12.496 43.2175 11.984C43.4308 11.472 43.6228 11.024 43.7935 10.64C44.0922 10 44.3375 9.44533 44.5295 8.976C44.7428 8.48533 44.9455 8.00533 45.1375 7.536C45.3508 7.06667 45.5748 6.544 45.8095 5.968C46.1295 5.30667 46.4175 4.656 46.6735 4.016C46.9508 3.35467 47.1855 2.768 47.3775 2.256C47.5908 1.744 47.7188 1.38133 47.7615 1.168C47.7402 0.997332 47.7615 0.879999 47.8255 0.815998C47.8895 0.730666 47.9748 0.677333 48.0815 0.655998C48.1882 0.591999 48.3588 0.549333 48.5935 0.528C48.8282 0.506666 48.9882 0.495998 49.0735 0.495998C49.3295 0.538666 49.5855 0.752 49.8415 1.136C50.1188 1.49867 50.2575 1.808 50.2575 2.064C50.2575 2.40533 50.0868 3.04533 49.7455 3.984C49.4255 4.90133 48.9562 5.98933 48.3375 7.248C47.5908 8.848 47.0255 10.0853 46.6415 10.96C46.2788 11.8347 46.0335 12.4533 45.9055 12.816C45.7775 13.1787 45.7242 13.4133 45.7455 13.52C45.7455 13.52 45.8308 13.488 46.0015 13.424C46.1722 13.36 46.4282 13.2107 46.7695 12.976C47.0042 12.8267 47.2708 12.6347 47.5695 12.4C47.8682 12.1653 48.1562 11.952 48.4335 11.76C48.7322 11.568 48.9668 11.4507 49.1375 11.408C49.2442 11.3227 49.3935 11.216 49.5855 11.088C49.7775 10.96 49.9588 10.8427 50.1295 10.736C50.5348 10.4373 50.8548 10.3413 51.0895 10.448C51.3242 10.5547 51.5375 10.736 51.7295 10.992C51.9642 11.2693 52.0495 11.568 51.9855 11.888C51.9428 12.1867 51.6122 12.5813 50.9935 13.072C50.5242 13.4133 50.0228 13.744 49.4895 14.064C48.9562 14.3627 48.4655 14.6293 48.0175 14.864C47.5908 15.0987 47.2815 15.2907 47.0895 15.44C47.0895 15.44 47.1855 15.5787 47.3775 15.856C47.5695 16.1333 47.7508 16.4 47.9215 16.656C48.0922 16.9973 48.3055 17.4347 48.5615 17.968C48.8175 18.48 49.0095 18.8427 49.1375 19.056C49.3722 19.3973 49.6068 19.6213 49.8415 19.728C50.0975 19.8347 50.4708 19.8027 50.9615 19.632C51.2815 19.5467 51.5482 19.5573 51.7615 19.664C51.9962 19.7493 52.1882 19.8987 52.3375 20.112C52.4228 20.2827 52.4655 20.4533 52.4655 20.624C52.4655 20.7947 52.3268 20.9973 52.0495 21.232C51.4522 21.6373 50.8655 21.9787 50.2895 22.256C49.7348 22.5547 49.2015 22.5333 48.6895 22.192C48.2415 21.8507 47.8148 21.4667 47.4095 21.04C47.0255 20.592 46.5882 20.048 46.0975 19.408C46.0975 19.3227 46.0335 19.1413 45.9055 18.864C45.7775 18.5867 45.6922 18.4267 45.6495 18.384C45.5642 18.2133 45.4682 18.064 45.3615 17.936C45.2762 17.7867 45.2335 17.712 45.2335 17.712C45.1695 17.4773 45.0842 17.2853 44.9775 17.136C44.8922 16.9867 44.7748 16.9013 44.6255 16.88C44.5402 16.944 44.4442 17.0507 44.3375 17.2C44.2308 17.3493 44.1242 17.5307 44.0175 17.744C43.8895 18.064 43.7615 18.384 43.6335 18.704C43.5055 19.0027 43.3988 19.3333 43.3135 19.696C43.2282 20.0373 43.1748 20.4533 43.1535 20.944C43.1748 21.1787 43.0788 21.4347 42.8655 21.712C42.6522 21.968 42.3748 22.096 42.0335 22.096ZM54.6743 23.024C54.5676 23.1947 54.4609 23.344 54.3543 23.472C54.2689 23.6 54.1729 23.6747 54.0663 23.696C54.0023 23.5893 53.8316 23.44 53.5543 23.248C53.2769 23.056 53.0103 22.8533 52.7543 22.64C52.4983 22.4267 52.3489 22.2347 52.3063 22.064C52.3063 21.8293 52.3916 21.3813 52.5623 20.72C52.7329 20.0587 52.9569 19.312 53.2343 18.48C53.5116 17.6267 53.7889 16.7947 54.0663 15.984C54.3649 15.152 54.6209 14.4587 54.8343 13.904C54.9836 13.52 55.1116 13.1893 55.2183 12.912C55.3249 12.6133 55.4103 12.3787 55.4743 12.208C55.5596 11.9733 55.7089 11.632 55.9223 11.184C56.1356 10.736 56.3596 10.2773 56.5943 9.808C56.8503 9.33867 57.0636 8.93333 57.2343 8.592C57.4049 8.25067 57.4903 8.08 57.4903 8.08C57.5116 7.90933 57.6289 7.58933 57.8423 7.12C58.0556 6.65067 58.3223 6.10667 58.6423 5.488C58.9623 4.86933 59.2929 4.26133 59.6343 3.664C59.9756 3.04533 60.2849 2.50133 60.5623 2.032C60.8183 1.648 61.0103 1.43467 61.1383 1.392C61.2876 1.328 61.4156 1.33867 61.5223 1.424C61.9916 1.38133 62.3969 1.392 62.7383 1.456C63.1009 1.49867 63.3783 1.584 63.5703 1.712C63.7836 1.81867 63.9009 1.94667 63.9223 2.096C63.9649 2.16 63.9649 2.43733 63.9223 2.928C63.9009 3.39733 63.8583 3.81333 63.7943 4.176C63.6663 5.22133 63.6023 6.192 63.6023 7.088C63.6023 7.96267 63.6556 8.93333 63.7623 10C63.8903 11.0453 64.0289 12.3467 64.1783 13.904L64.6583 17.008L65.2343 15.76C65.4476 15.2907 65.6396 14.8213 65.8103 14.352C65.9809 13.8613 66.1516 13.4453 66.3223 13.104C66.4929 12.6133 66.6743 12.144 66.8663 11.696C67.0796 11.2267 67.1863 10.992 67.1863 10.992C67.3783 10.7147 67.5596 10.3413 67.7303 9.872C67.9223 9.40267 68.0929 8.93333 68.2423 8.464C68.4129 7.99467 68.5409 7.64267 68.6263 7.408C68.6689 7.25867 68.7329 7.03467 68.8183 6.736C68.9249 6.43733 69.0316 6.10667 69.1383 5.744C69.2663 5.38133 69.3836 5.02933 69.4903 4.688C69.6183 4.26133 69.7356 3.87733 69.8423 3.536C69.9489 3.19467 70.0449 2.90667 70.1303 2.672C70.2156 2.416 70.2689 2.24533 70.2903 2.16C70.2903 2.16 70.3329 2.10667 70.4183 2C70.5036 1.89333 70.5996 1.72267 70.7063 1.488L71.8583 1.232C72.3489 1.63733 72.6263 2.02133 72.6903 2.384C72.7756 2.72533 72.7116 3.17333 72.4983 3.728C72.4769 3.94133 72.4236 4.176 72.3383 4.432C72.2529 4.66667 72.2103 4.784 72.2103 4.784C72.3383 4.784 72.3489 4.93333 72.2423 5.232C72.1569 5.50933 72.0929 5.75467 72.0503 5.968C72.0076 6.11733 71.9329 6.37333 71.8263 6.736C71.7409 7.09867 71.6449 7.48267 71.5383 7.888C71.4316 8.29333 71.3356 8.64533 71.2503 8.944C71.2076 9.11467 71.0903 9.43467 70.8983 9.904C70.7063 10.352 70.4823 10.864 70.2263 11.44C69.9703 12.016 69.7036 12.6027 69.4263 13.2C69.1703 13.776 68.9356 14.2773 68.7222 14.704C68.5089 15.1307 68.3596 15.4187 68.2743 15.568C68.2103 15.696 68.1356 15.856 68.0503 16.048C67.9863 16.24 67.9009 16.3893 67.7943 16.496C67.6876 16.8373 67.4956 17.2213 67.2183 17.648C66.9409 18.0747 66.6423 18.4907 66.3223 18.896C66.0236 19.3013 65.7569 19.6427 65.5223 19.92C65.2449 20.2187 64.9676 20.4427 64.6903 20.592C64.4129 20.7413 64.0929 20.7307 63.7303 20.56C63.3889 20.3893 62.9623 20.0053 62.4503 19.408C62.3436 19.2373 62.2263 18.864 62.0983 18.288C61.9703 17.712 61.8316 17.0507 61.6823 16.304C61.5543 15.536 61.4263 14.7787 61.2983 14.032C61.1703 13.264 61.0743 12.6133 61.0103 12.08C60.9249 11.6533 60.8929 11.3227 60.9143 11.088C60.9356 10.832 60.9463 10.5653 60.9463 10.288C60.9463 9.94667 60.9463 9.69067 60.9463 9.52C60.9676 9.328 60.9889 9.14667 61.0103 8.976C61.0316 8.784 61.0423 8.53867 61.0423 8.24C61.0636 8.00533 61.0529 7.86667 61.0103 7.824C60.9676 7.76 60.8823 7.81333 60.7543 7.984C60.3916 8.51733 60.0823 9.008 59.8263 9.456C59.5703 9.904 59.3783 10.2667 59.2503 10.544C59.1649 10.7787 59.0049 11.1733 58.7703 11.728C58.5356 12.2613 58.2796 12.8587 58.0023 13.52C57.7249 14.1813 57.4583 14.8 57.2023 15.376C56.9676 15.952 56.7863 16.3893 56.6583 16.688C56.5089 17.008 56.3489 17.4453 56.1783 18C56.0289 18.5333 55.8796 19.0987 55.7303 19.696C55.5809 20.272 55.4529 20.784 55.3463 21.232C55.2609 21.68 55.1969 21.968 55.1543 22.096C55.1329 22.1173 55.0583 22.2453 54.9303 22.48C54.8236 22.7147 54.7383 22.896 54.6743 23.024ZM73.6565 21.712C72.8245 21.3707 72.2485 20.816 71.9285 20.048C71.6085 19.28 71.5232 18.256 71.6725 16.976C71.7152 16.3147 71.6938 15.8773 71.6085 15.664C71.5232 15.4293 71.3632 15.2053 71.1285 14.992C71.0645 14.9067 70.9152 14.768 70.6805 14.576C70.4458 14.3627 70.3392 14.2027 70.3605 14.096C70.3392 13.9467 70.3712 13.7653 70.4565 13.552C70.5418 13.3173 70.6165 13.1893 70.6805 13.168C70.8298 13.104 70.9792 13.0293 71.1285 12.944C71.2992 12.8587 71.4272 12.8373 71.5125 12.88C71.5978 12.88 71.7258 12.9333 71.8965 13.04C72.0885 13.1467 72.1845 13.2427 72.1845 13.328C72.2698 13.4773 72.3978 13.4133 72.5685 13.136C72.7605 12.8587 72.9632 12.5067 73.1765 12.08C73.3898 11.7387 73.6565 11.4187 73.9765 11.12C74.2965 10.8213 74.6165 10.5547 74.9365 10.32C75.2778 10.064 75.5658 9.872 75.8005 9.744C75.9072 9.70133 76.1098 9.63733 76.4085 9.552C76.7285 9.46667 77.0592 9.40267 77.4005 9.36C77.7418 9.296 77.9978 9.27467 78.1685 9.296C78.5525 9.31733 78.9578 9.47733 79.3845 9.776C79.8112 10.0747 80.1418 10.352 80.3765 10.608C80.6538 10.8 80.8352 11.0987 80.9205 11.504C81.0272 11.888 81.0698 12.2933 81.0485 12.72C81.0272 13.1467 80.9418 13.5093 80.7925 13.808C80.7285 14.0213 80.5045 14.32 80.1205 14.704C79.7365 15.088 79.3098 15.4613 78.8405 15.824C78.3925 16.1653 78.0085 16.4 77.6885 16.528C77.4112 16.592 77.0805 16.6453 76.6965 16.688C76.3125 16.7093 75.9498 16.7093 75.6085 16.688C75.2885 16.6453 75.0645 16.592 74.9365 16.528C74.7872 16.4427 74.6592 16.4747 74.5525 16.624C74.4672 16.752 74.3925 17.1147 74.3285 17.712C74.3072 17.9467 74.3072 18.1493 74.3285 18.32C74.3712 18.4907 74.4138 18.6187 74.4565 18.704C74.6058 18.96 74.7552 19.152 74.9045 19.28C75.0538 19.3867 75.3312 19.4187 75.7365 19.376C76.1418 19.3333 76.5472 19.088 76.9525 18.64C77.3792 18.1707 77.7632 17.7973 78.1045 17.52C78.1898 17.3707 78.3712 17.2747 78.6485 17.232C78.9472 17.168 79.2992 17.1893 79.7045 17.296C79.9392 17.4453 80.0458 17.68 80.0245 18C80.0245 18.32 79.8538 18.7893 79.5125 19.408C79.4485 19.5573 79.2672 19.7813 78.9685 20.08C78.6912 20.3573 78.3818 20.6453 78.0405 20.944C77.7205 21.2213 77.4538 21.424 77.2405 21.552C76.6005 21.8933 75.9712 22.0533 75.3525 22.032C74.7338 22.0107 74.1685 21.904 73.6565 21.712ZM76.0245 14.512C76.3445 14.4267 76.6112 14.3413 76.8245 14.256C77.0592 14.1707 77.2832 14.032 77.4965 13.84C77.7098 13.648 77.9552 13.36 78.2325 12.976C78.3178 12.7413 78.3605 12.5387 78.3605 12.368C78.3818 12.1973 78.3712 12.0907 78.3285 12.048C78.1578 11.8773 77.9658 11.824 77.7525 11.888C77.5605 11.9307 77.3472 12.0373 77.1125 12.208C76.9632 12.272 76.7498 12.4107 76.4725 12.624C76.2165 12.816 75.9605 13.04 75.7045 13.296C75.4698 13.5307 75.2778 13.7547 75.1285 13.968C75.0005 14.16 74.9792 14.2773 75.0645 14.32C75.0218 14.4053 75.1392 14.4587 75.4165 14.48C75.7152 14.5013 75.9178 14.512 76.0245 14.512ZM85.208 22.192C84.5253 22.192 83.896 22.0427 83.32 21.744C82.7653 21.424 82.3173 21.04 81.976 20.592C81.6347 20.1227 81.464 19.6747 81.464 19.248C81.464 19.056 81.496 18.9173 81.56 18.832C81.6453 18.7467 81.7627 18.704 81.912 18.704C82.0187 18.7253 82.1467 18.7787 82.296 18.864C82.4453 18.9493 82.5947 19.0453 82.744 19.152C83.0853 19.3867 83.4587 19.536 83.864 19.6C84.2693 19.664 84.632 19.6427 84.952 19.536C85.272 19.408 85.4533 19.216 85.496 18.96C85.496 18.8747 85.4533 18.6933 85.368 18.416C85.2827 18.1387 85.176 17.872 85.048 17.616C84.5147 16.8267 84.184 16.08 84.056 15.376C83.928 14.6507 83.8427 13.9253 83.8 13.2C83.8 12.9013 83.9387 12.5707 84.216 12.208C84.4933 11.824 84.8347 11.4507 85.24 11.088C85.688 10.704 86.1787 10.3413 86.712 10C87.2667 9.65867 87.8107 9.37067 88.344 9.136C88.8773 8.90133 89.3253 8.76267 89.688 8.72C90.072 8.72 90.4773 8.74133 90.904 8.784C91.352 8.80533 91.6507 8.88 91.8 9.008C92.0987 9.24267 92.376 9.62667 92.632 10.16C92.888 10.6933 93.016 11.1413 93.016 11.504C93.016 11.6747 92.92 11.888 92.728 12.144C92.5573 12.3787 92.3973 12.6453 92.248 12.944C92.1627 13.0933 92.088 13.2533 92.024 13.424C91.96 13.5947 91.8853 13.7653 91.8 13.936C91.672 14.2347 91.4373 14.3627 91.096 14.32C90.776 14.256 90.4773 14.0853 90.2 13.808C89.9227 13.5093 89.784 13.168 89.784 12.784C89.784 12.464 89.88 12.1867 90.072 11.952C90.264 11.7173 90.36 11.5573 90.36 11.472C90.36 11.4293 90.3387 11.3973 90.296 11.376C90.2533 11.3547 90.1787 11.344 90.072 11.344C89.9227 11.344 89.6773 11.408 89.336 11.536C89.016 11.6427 88.6747 11.8027 88.312 12.016C87.9493 12.2293 87.6187 12.4853 87.32 12.784C87.1067 13.0187 86.9253 13.2747 86.776 13.552C86.648 13.808 86.584 14.0853 86.584 14.384C86.584 14.6827 86.6373 15.0347 86.744 15.44C86.872 15.824 87.0107 16.144 87.16 16.4C87.2027 16.4427 87.2667 16.56 87.352 16.752C87.4587 16.9227 87.576 17.136 87.704 17.392C88.4933 19.0133 88.6213 20.2187 88.088 21.008C87.576 21.7973 86.616 22.192 85.208 22.192ZM96.3635 23.92C95.3182 23.8987 94.6462 23.6 94.3475 23.024C94.0702 22.4693 93.9955 21.7653 94.1235 20.912C94.2515 20.5067 94.3262 20.144 94.3475 19.824C94.3902 19.4827 94.4862 19.2693 94.6355 19.184C94.6355 19.184 94.6462 19.152 94.6675 19.088C94.7102 19.024 94.6995 18.96 94.6355 18.896C94.6355 18.6187 94.7315 18.2347 94.9235 17.744C94.9662 17.616 95.0195 17.4667 95.0835 17.296C95.1688 17.104 95.2115 17.008 95.2115 17.008C95.1048 16.8373 95.1048 16.6987 95.2115 16.592C95.3182 16.4853 95.4248 16.3893 95.5315 16.304C95.6595 16.1973 95.6702 16.08 95.5635 15.952C95.5208 15.8667 95.5742 15.6747 95.7235 15.376C95.8728 15.056 96.0435 14.7253 96.2355 14.384C96.4275 14.0427 96.5555 13.776 96.6195 13.584C96.6195 13.5413 96.6728 13.392 96.7795 13.136C96.8862 12.88 97.0142 12.5813 97.1635 12.24C97.3128 11.8987 97.4515 11.5893 97.5795 11.312C97.7288 11.0347 97.8248 10.8533 97.8675 10.768C98.0808 10.6613 97.9955 10.5867 97.6115 10.544C97.2275 10.5013 96.8222 10.4907 96.3955 10.512C95.7342 10.4907 95.2008 10.4587 94.7955 10.416C94.4115 10.3733 94.0915 10.2773 93.8355 10.128C93.5795 9.82933 93.5475 9.47733 93.7395 9.072C93.9315 8.64533 94.2408 8.42133 94.6675 8.4C94.9448 8.37867 95.1582 8.368 95.3075 8.368C95.4782 8.368 95.6915 8.35733 95.9475 8.336C96.2248 8.29333 96.6515 8.24 97.2275 8.176L98.8595 8.048L98.9555 7.504C99.1262 7.22667 99.2435 7.04533 99.3075 6.96C99.3715 6.87467 99.4142 6.78933 99.4355 6.704C99.4568 6.59733 99.4888 6.416 99.5315 6.16C99.5315 6.16 99.6275 5.98933 99.8195 5.648C100.012 5.28533 100.129 4.912 100.172 4.528C100.428 4.10133 100.652 3.71733 100.844 3.376C101.036 3.01333 101.153 2.78933 101.196 2.704C101.558 2.17067 101.91 1.88267 102.252 1.84C102.614 1.79733 102.956 1.88267 103.276 2.096C103.468 2.20267 103.649 2.34133 103.82 2.512C103.99 2.66133 104.097 2.864 104.14 3.12C104.182 3.35467 104.086 3.664 103.852 4.048C103.809 4.13333 103.745 4.29333 103.66 4.528C103.574 4.74133 103.51 4.92267 103.468 5.072C103.34 5.22133 103.18 5.46667 102.988 5.808C102.817 6.128 102.7 6.45867 102.636 6.8C102.465 7.16267 102.358 7.38667 102.316 7.472C102.273 7.55733 102.209 7.6 102.124 7.6C102.166 7.81333 102.294 7.92 102.508 7.92C102.721 7.89867 103.073 7.87733 103.564 7.856C103.969 7.81333 104.246 7.77067 104.396 7.728C104.566 7.664 104.758 7.68533 104.972 7.792C105.078 7.94133 105.132 8.16533 105.132 8.464C105.153 8.74133 105.121 9.01867 105.036 9.296C104.95 9.552 104.833 9.712 104.684 9.776C104.577 9.776 104.353 9.84 104.012 9.968C103.692 10.0747 103.286 10.1387 102.796 10.16L101.1 10.32L100.556 11.408C100.406 11.6853 100.278 11.9413 100.172 12.176C100.065 12.3893 99.9902 12.5173 99.9475 12.56C99.9475 12.688 99.8728 12.88 99.7235 13.136C99.5955 13.392 99.4568 13.6693 99.3075 13.968C99.1795 14.3307 99.0302 14.6613 98.8595 14.96C98.7102 15.2587 98.6355 15.408 98.6355 15.408C98.5502 15.408 98.5075 15.472 98.5075 15.6C98.6142 15.856 98.5822 16.048 98.4115 16.176C98.3048 16.24 98.2088 16.336 98.1235 16.464C98.0595 16.5707 98.0275 16.624 98.0275 16.624C98.1128 16.7093 98.1235 16.816 98.0595 16.944C98.0168 17.072 97.9528 17.2107 97.8675 17.36C97.8675 17.5307 97.8142 17.776 97.7075 18.096C97.6222 18.416 97.5262 18.7147 97.4195 18.992C97.4408 19.376 97.4622 19.6213 97.4835 19.728C97.5048 19.8347 97.5582 19.8773 97.6435 19.856C97.7502 19.8773 97.8995 19.8773 98.0915 19.856C98.2835 19.8347 98.4222 19.824 98.5075 19.824C98.8275 19.6747 98.6782 20.4213 98.0595 22.064C97.7182 22.5973 97.3768 23.0347 97.0355 23.376C96.6942 23.7387 96.4702 23.92 96.3635 23.92Z" fill="white"/>
</svg>
