<svg xmlns="http://www.w3.org/2000/svg" version="1.1" xmlns:xlink="http://www.w3.org/1999/xlink" xmlns:svgjs="http://svgjs.dev/svgjs" width="100%" height="100%" viewBox="0 0 1000 600"><rect width="1000" height="600" x="0" y="0" fill="#ffecd1"/><g><rect width="333.3333333333333" height="333.3333333333333" rx="13.333333333333334" ry="13.333333333333334" y="151.0102783084139" fill="#78290f" transform="matrix(0.970586827474874,0,0,0.970586827474874,0,-8.333069404960668)" x="128.7880706787109"/><path d="M243.98850457624476 392.67695199283395L219.53370865851204 392.67695199283395L188.44118242025186 242.67695053900053L208.76724655966606 242.67695053900053L224.10707308988023 324.2988018488358Q226.39375530556435 336.43092138204867 228.4581211947236 348.53128144004364Q230.49072760866503 360.6634009732565 232.33277717129945 373.462469486044L232.33277717129945 373.462469486044L233.25380195261664 373.462469486044Q235.54048416830074 360.6634009732565 238.17652061138102 348.53128144004364Q240.78079757924348 336.43092138204867 243.5438719231951 324.2988018488358L243.5438719231951 324.2988018488358L263.9016955378272 242.67695053900053L283.0844185693993 242.67695053900053L302.77529320445683 324.2988018488358Q305.5066080731907 336.20860505552383 308.23792294192447 348.4360030143901Q311.0009972858761 360.6634009732565 313.50999582808504 373.462469486044L313.50999582808504 373.462469486044L314.43102060940225 373.462469486044Q316.2413106968188 360.6634009732565 318.30567658597806 348.53128144004364Q320.3700424751373 336.43092138204867 322.4344083642966 324.2988018488358L322.4344083642966 324.2988018488358L338.2188675475604 242.67695053900053L357.65566638087523 242.67695053900053L326.3090643408724 392.67695199283395L301.8542684231396 392.67695199283395L280.35310370066554 302.57532079983685Q278.5110541380311 294.12730039189273 276.7960424762681 285.55224208307743Q275.08103081450497 276.977183774262 273.49305705361326 267.3540627832581L273.49305705361326 267.3540627832581L272.57203227229604 267.3540627832581Q271.20637483792916 276.977183774262 269.49136317616603 285.55224208307743Q267.776351514403 294.12730039189273 265.9343019517686 302.57532079983685L265.9343019517686 302.57532079983685L243.98850457624476 392.67695199283395ZM402.46828591324004 392.67695199283395L383.4761197329749 392.67695199283395L383.4761197329749 242.67695053900053L402.46828591324004 242.67695053900053L402.46828591324004 392.67695199283395Z " fill="#ffe8f5" transform="matrix(0.970586827474874,0,0,0.970586827474874,0,-8.333069404960668)"/><path d="M603.1062727764393 392.6769510948415L603.1062727764393 392.6769510948415Q586.6224505889892 392.6769510948415 573.4855973736103 384.56055133756917Q560.3208527501307 376.41626017219613 552.9017381953732 361.15965994117227Q545.4547322325151 345.9030597101483 545.4547322325151 324.39878406459167L545.4547322325151 324.39878406459167Q545.4547322325151 308.55646426345527 549.7779004881069 295.89376498578633Q554.1010687436986 283.2310657081175 562.1337942766692 274.305815115928Q570.1665198096398 265.3805645237385 580.7094720716636 260.7505907790402Q591.2524243336876 256.1206170343418 603.9151236113564 256.1206170343418L603.9151236113564 256.1206170343418Q615.7410806460075 256.1206170343418 625.084702359706 260.9458306357443Q634.4283240734043 265.7710442371467 640.062388509724 272.4091993650877L640.062388509724 272.4091993650877L631.0255722851321 282.64534613800504Q625.7819875622207 277.01128170168545 619.060158209978 273.91533540251964Q612.3383288577353 270.7914976952533 604.1103634680605 270.7914976952533L604.1103634680605 270.7914976952533Q591.8660353119006 270.7914976952533 582.5224135982022 277.31808719079197Q573.1787918845038 283.84467668633056 567.963098569693 295.78219935338393Q562.7474052548822 307.7476134285381 562.7474052548822 324.0083043511833L562.7474052548822 324.0083043511833Q562.7474052548822 340.6873663953375 567.7678587129889 352.7364546947934Q572.7883121710955 364.78554299424917 582.2156081090957 371.31213248978776Q591.6429040470958 377.83872198532634 604.3056033247648 377.83872198532634L604.3056033247648 377.83872198532634Q613.5376594060607 377.83872198532634 620.8730997365166 374.32440456465173Q628.2085400669722 370.8100871439771 634.2330842167001 363.976692159332L634.2330842167001 363.976692159332L643.074660584588 373.8223592188411Q635.2371749083214 382.859175443433 625.5867477055166 387.76806326913726Q615.9642119108122 392.6769510948415 603.1062727764393 392.6769510948415ZM688.6492214209557 392.6769510948415L688.6492214209557 392.6769510948415Q680.6164958879851 392.6769510948415 674.0899063924466 389.3857649389716Q667.563316896908 386.0666873750011 663.7421939871267 379.93057759287075Q659.9210710773457 373.8223592188411 659.9210710773457 364.9807828509534L659.9210710773457 364.9807828509534Q659.9210710773457 348.49696066350333 674.3967118815531 340.07375541712446Q688.8444612776598 331.6505501707456 720.1665125746249 328.2199069743728L720.1665125746249 328.2199069743728Q719.9712727179208 322.19536282464486 718.2698968237846 316.58918979642584Q716.5685209296485 310.9551253601062 712.1337870416544 307.55237357183387Q707.7269445617608 304.1217303754611 699.8894588854944 304.1217303754611L699.8894588854944 304.1217303754611Q691.4662536391155 304.1217303754611 684.0192476762574 307.24556808272735Q676.6001331214998 310.34151438189315 670.770828828476 314.16263729167434L670.770828828476 314.16263729167434L664.3558049653398 302.92239982713556Q668.7626474452334 299.9101277522716 674.7871915949613 297.00942130981Q680.8117357446893 294.0808234592479 687.8403705860385 292.1842077084076Q694.8690054273877 290.25970054946674 702.7064911036541 290.25970054946674L702.7064911036541 290.25970054946674Q714.5603395464059 290.25970054946674 722.0910197335658 295.19647978327157Q729.6216999207256 300.1053676089758 733.1360173414002 309.14218383356763Q736.6503347620749 318.1790000581596 736.6503347620749 330.4233282143196L736.6503347620749 330.4233282143196L736.6503347620749 390.2782899981905L722.9835447927846 390.2782899981905L721.5889743877551 378.61968141214294L720.9753634095421 378.61968141214294Q713.9467285681928 384.44898570516676 705.9140030352223 388.5769141040544Q697.8812775022517 392.6769510948415 688.6492214209557 392.6769510948415ZM693.279195165654 379.03805253365186L693.279195165654 379.03805253365186Q700.5030698637073 379.03805253365186 706.8344195025418 375.8305406020838Q713.1378777332757 372.595137262415 720.1665125746249 366.37535325598293L720.1665125746249 366.37535325598293L720.1665125746249 340.07375541712446Q703.7105817952754 342.08193680036715 694.171720224873 345.2057745076335Q684.6328586544704 348.3017208067992 680.4212560312809 352.9316945514975Q676.2096534080915 357.53377688809525 676.2096534080915 363.976692159332L676.2096534080915 363.976692159332Q676.2096534080915 372.00941769230263 681.2301068661981 375.52373511297725Q686.2505603243047 379.03805253365186 693.279195165654 379.03805253365186ZM786.6596294864368 390.2782899981905L770.1758072989868 390.2782899981905L770.1758072989868 277.20652155838957Q770.1758072989868 267.38874590698106 773.1880793738508 260.0533055765253Q776.2003514487147 252.71786524606958 782.5317010875491 248.81306811198667Q788.8630507263836 244.88037956980315 798.7087177858926 244.88037956980315L798.7087177858926 244.88037956980315Q803.1155602657863 244.88037956980315 807.4387285213779 245.8007960371227Q811.7618967769698 246.69332109634166 814.9694087085379 248.08789150137127L814.9694087085379 248.08789150137127L811.3435256554609 260.13697980082713Q805.5142213624372 258.35192968238925 800.2985280476264 258.35192968238925L800.2985280476264 258.35192968238925Q793.4651330629813 258.35192968238925 790.062381274709 263.0655776513893Q786.6596294864368 267.7792256203894 786.6596294864368 277.20652155838957L786.6596294864368 277.20652155838957L786.6596294864368 390.2782899981905ZM807.3271628889756 306.12991175870366L755.72805790288 306.12991175870366L755.72805790288 293.6903437458395L770.984658133904 292.68625305421824L807.3271628889756 292.68625305421824L807.3271628889756 306.12991175870366ZM865.5644230030123 392.6769510948415L865.5644230030123 392.6769510948415Q852.5112440119351 392.6769510948415 841.7730518932071 386.56873272081174Q831.034859774479 380.4326229386815 824.815075768047 369.0808198417404Q818.5674003535144 357.75690815289994 818.5674003535144 341.4683258221541L818.5674003535144 341.4683258221541Q818.5674003535144 325.62600602101764 825.0103156247512 314.16263729167434Q831.4253394878874 302.72715997043144 841.4662464041005 296.5073759639994Q851.5071533203138 290.25970054946674 862.7473907848525 290.25970054946674L862.7473907848525 290.25970054946674Q875.2148502058171 290.25970054946674 883.9448609413025 296.00533061818874Q892.6748716767879 301.72306927881016 897.1096055647821 311.95921605172754Q901.5164480446756 322.19536282464486 901.5164480446756 336.0573926506392L901.5164480446756 336.0573926506392Q901.5164480446756 338.6791850120948 901.4048824122733 341.07784610874575Q901.3212081879715 343.4765072053968 900.7075972097584 345.9030597101483L900.7075972097584 345.9030597101483L830.421248796266 345.9030597101483L830.421248796266 332.8498807190711L886.65032752706 332.8498807190711Q886.65032752706 318.79261103637265 880.5421091530303 311.2619308492127Q874.4059993709 303.73125066205273 862.9705220496571 303.73125066205273L862.9705220496571 303.73125066205273Q856.3323669217162 303.73125066205273 849.9173430585801 307.4408079394316Q843.4744277873432 311.1503652168103 839.3743907965561 319.378330606485Q835.2464623976684 327.63418740426033 835.2464623976684 341.27308596545L835.2464623976684 341.27308596545Q835.2464623976684 353.7405453864147 839.5696306532602 362.16375063279355Q843.892798908852 370.5869558791724 851.3119134636097 374.9101241347642Q858.7310280183672 379.233292390356 867.5726043862549 379.233292390356L867.5726043862549 379.233292390356Q874.6012392276041 379.233292390356 880.7373490097344 377.2251110071134Q886.8455673837641 375.2169296238707 891.8660208418707 371.8141778355985L891.8660208418707 371.8141778355985L897.8905649915987 382.6360441786282Q891.4755411284625 387.0707780666224 883.5543812278943 389.88781028478223Q875.6053299192254 392.6769510948415 865.5644230030123 392.6769510948415ZM860.3487296882015 275.8119511533599L847.1003108404202 275.8119511533599L873.0114289658704 242.67695832985638L891.0850614150542 242.67695832985638L892.0891521066756 244.48989985639486L860.3487296882015 275.8119511533599Z " fill="#78290f" transform="matrix(0.970586827474874,0,0,0.970586827474874,0,-8.333069404960668)"/></g></svg>